<?xml version="1.0" encoding="UTF-8"?>
<!DOCTYPE svg PUBLIC "-//W3C//DTD SVG 1.1//EN" "http://www.w3.org/Graphics/SVG/1.1/DTD/svg11.dtd">
<svg version="1.1" xmlns="http://www.w3.org/2000/svg" xmlns:xlink="http://www.w3.org/1999/xlink" x="0" y="0" width="480" height="445" viewBox="0, 0, 480, 445">
  <defs>
    <clipPath id="Clip_1">
      <path d="M137.924,419.016 L32.65,236.675 L137.924,54.335 L348.473,54.335 L453.747,236.675 L348.473,419.016 z"/>
    </clipPath>
    <clipPath id="Clip_2">
      <path d="M21.65,41.335 L464.747,41.335 L464.747,432.016 L21.65,432.016 z M348.473,54.335 L137.924,54.335 L32.65,236.675 L137.924,419.016 L348.473,419.016 L453.747,236.675 L348.473,54.335 z"/>
    </clipPath>
    <filter id="Shadow_3">
      <feGaussianBlur in="SourceAlpha" stdDeviation="5"/>
      <feOffset dx="0" dy="2" result="offsetblur"/>
      <feFlood flood-color="#000000"/>
      <feComposite in2="offsetblur" operator="in"/>
    </filter>
    <clipPath id="Clip_4">
      <path d="M306.24,102.142 C337.32,102.142 359.526,109.216 372.847,123.381 C386.249,137.627 392.954,153.616 392.954,171.339 C392.954,190.066 387.479,210.33 376.532,232.13 C366.423,252.616 352.856,271.201 336.178,286.808 C347.105,296.707 356.499,308.153 365.575,319.73 L365.68,319.866 L365.592,320.012 L344.431,355.327 L344.292,355.56 L344.072,355.401 C328.094,343.92 311.222,333.768 294.186,323.955 C273.436,336.268 250.759,344.574 227.544,350.816 C203.422,356.894 185.327,359.933 173.25,359.933 C162.375,359.933 149.823,356.795 135.595,350.523 C121.254,344.337 110.796,335.661 104.228,324.496 C97.666,313.434 94.384,301.805 94.383,289.614 C94.384,260.769 107.211,233.381 132.853,207.459 C158.484,181.547 192.155,162.841 233.863,151.339 L234.271,151.226 L234.173,151.638 L229.688,170.416 L229.657,170.546 L229.532,170.592 C206.574,179.085 186.184,190.423 168.361,204.607 C153.141,216.603 139.691,231.002 131.205,248.557 C149.739,290.635 179.541,317.707 226.923,318.513 C241.081,318.498 254.946,315.289 268.485,311.432 C247.253,302.481 225.228,295.124 202.366,291.824 L201.855,291.757 L202.225,291.397 C212.131,281.771 221.594,273.102 230.614,265.391 C239.636,257.678 247.187,251.763 253.268,247.647 L253.412,247.604 C265.87,247.791 277.346,250.133 287.843,254.632 C299.43,259.642 310.143,266.364 320.405,273.661 C327.072,256.053 329.817,237.44 330.234,218.705 C330.234,190.827 323.992,169.818 311.518,155.669 C299.048,141.524 282.207,134.453 260.976,134.453 C230.943,134.453 197.165,145.51 159.644,167.631 L159.439,167.653 L135.195,159.665 L134.661,159.489 L135.149,159.21 C201.795,121.167 258.824,102.142 306.24,102.142 z M234.821,136.902 C231.29,137.514 232.709,137.186 230.531,137.736 L234.821,136.902 z M246.245,135.14 C243.359,135.397 244.512,135.223 242.766,135.525 L246.245,135.14 z"/>
    </clipPath>
    <filter id="InnerShadow_5">
      <feGaussianBlur in="SourceAlpha" stdDeviation="5.5"/>
      <feOffset dx="0" dy="2" result="offsetblur"/>
      <feFlood flood-color="#000000"/>
      <feComposite in2="offsetblur" operator="in"/>
    </filter>
    <clipPath id="Clip_6">
      <path d="M460.182,106.588 L962.571,106.588 L962.571,362.552 L460.182,362.552 z M503.834,133.181 L471.182,133.181 L471.182,349.552 L567.456,349.552 L567.456,318.862 L503.834,318.862 L503.834,133.181 z M692.178,192.739 L724.269,266.311 L658.545,266.311 L692.178,192.739 z M692.738,119.588 L585.674,349.552 L620.848,349.552 L644.952,297.001 L737.582,297.001 L760.284,349.552 L796.019,349.552 L692.738,119.588 z M867.208,163.17 Q883.745,163.17 892.433,171.088 Q901.122,179.006 901.122,194.281 Q901.122,209.976 892.643,218.034 Q884.165,226.092 865.947,226.092 L855.717,226.092 L855.717,163.17 L867.208,163.17 z M872.253,253.418 Q898.599,253.418 908.829,262.808 Q919.339,272.337 919.339,286.351 Q919.339,300.785 908.409,310.174 Q898.039,318.862 875.897,318.862 L855.717,318.862 L855.717,253.418 L872.253,253.418 z M855.577,133.181 L823.065,133.181 L823.065,349.552 L872.534,349.552 Q894.675,349.552 909.39,345.488 Q922.843,341.284 933.633,330.494 Q951.571,312.977 951.571,287.612 Q951.571,268.273 941.481,253.699 Q931.531,238.984 914.294,233.099 Q932.092,216.983 932.092,193.72 Q932.092,180.968 926.626,168.496 Q921.301,156.164 912.192,147.895 Q903.224,139.908 890.191,136.544 Q877.298,133.181 855.577,133.181 z"/>
    </clipPath>
    <filter id="Shadow_7">
      <feGaussianBlur in="SourceAlpha" stdDeviation="5"/>
      <feOffset dx="0" dy="2" result="offsetblur"/>
      <feFlood flood-color="#000000"/>
      <feComposite in2="offsetblur" operator="in"/>
    </filter>
    <clipPath id="Clip_8">
      <path d="M130.901,367.74 L344.458,367.74 L344.458,413.152 L130.901,413.152 z M143.227,380.066 Q149.673,380.066 149.673,384.811 Q149.673,389.876 143.047,389.875 L141.566,389.875 L141.566,380.066 L143.227,380.066 z M142.366,375.682 L136.901,375.682 L136.901,406.592 L141.566,406.592 L141.566,393.939 L142.406,393.939 L151.235,406.592 L156.941,406.592 L147.371,393.419 Q150.454,392.758 152.336,390.396 Q154.218,388.034 154.218,384.751 Q154.218,380.546 151.215,377.984 Q148.492,375.682 142.366,375.682 z M178.642,375.682 L161.585,375.682 L161.585,406.592 L178.642,406.592 L178.642,402.207 L166.25,402.207 L166.25,391.877 L178.281,391.877 L178.281,387.493 L166.25,387.493 L166.25,380.066 L178.642,380.066 L178.642,375.682 z M225.728,375.682 L208.671,375.682 L208.671,406.592 L225.728,406.592 L225.728,402.207 L213.335,402.207 L213.335,391.877 L225.367,391.877 L225.367,387.493 L213.335,387.493 L213.335,380.066 L225.728,380.066 L225.728,375.682 z M243.525,384.19 L248.109,394.7 L238.72,394.7 L243.525,384.19 z M243.605,373.74 L228.31,406.592 L233.335,406.592 L236.778,399.085 L250.011,399.085 L253.255,406.592 L258.359,406.592 L243.605,373.74 z M268.549,380.066 Q274.996,380.066 274.996,384.811 Q274.996,389.876 268.369,389.875 L266.888,389.875 L266.888,380.066 L268.549,380.066 z M267.689,375.682 L262.223,375.682 L262.223,406.592 L266.888,406.592 L266.888,393.939 L267.729,393.939 L276.557,406.592 L282.263,406.592 L272.694,393.419 Q275.777,392.758 277.658,390.396 Q279.54,388.034 279.54,384.751 Q279.54,380.546 276.537,377.984 Q273.815,375.682 267.689,375.682 z M320.46,375.682 L315.796,375.682 L315.796,406.592 L320.46,406.592 L320.46,392.158 L333.793,392.158 L333.793,406.592 L338.458,406.592 L338.458,375.682 L333.793,375.682 L333.793,387.773 L320.46,387.773 L320.46,375.682 z M193.897,375.081 Q189.933,375.081 187.27,377.443 Q184.608,379.786 184.608,383.269 Q184.608,388.434 190.954,391.117 L193.937,392.358 Q195.098,392.858 195.939,393.409 Q196.779,393.96 197.31,394.59 Q197.84,395.221 198.091,395.971 Q198.341,396.722 198.341,397.623 Q198.341,399.865 196.9,401.327 Q195.458,402.788 193.276,402.788 Q190.513,402.788 189.072,400.786 Q188.271,399.745 187.951,397.022 L183.226,398.064 Q183.867,402.388 186.449,404.77 Q189.072,407.152 193.096,407.152 Q197.34,407.152 200.203,404.35 Q203.046,401.567 203.046,397.303 Q203.046,394.12 201.304,391.928 Q199.562,389.735 195.798,388.214 L192.715,386.953 Q189.352,385.571 189.352,383.309 Q189.352,381.668 190.633,380.586 Q191.915,379.485 193.857,379.485 Q195.438,379.485 196.439,380.126 Q197.4,380.687 198.461,382.528 L202.245,380.286 Q199.242,375.081 193.897,375.081 z M301.001,375.081 Q293.374,375.081 288.569,380.747 Q284.665,385.371 284.665,391.277 Q284.665,397.863 289.33,402.528 Q294.014,407.152 300.641,407.152 Q305.045,407.152 309.049,404.89 L309.049,399.265 Q307.908,400.226 306.877,400.906 Q305.846,401.587 304.885,401.987 Q303.163,402.788 300.701,402.788 Q295.936,402.788 292.653,399.445 Q289.37,396.102 289.37,391.237 Q289.37,386.312 292.653,382.909 Q295.916,379.485 300.681,379.485 Q305.005,379.485 309.049,382.869 L309.049,377.343 Q305.165,375.081 301.001,375.081 z"/>
    </clipPath>
    <filter id="Shadow_9">
      <feGaussianBlur in="SourceAlpha" stdDeviation="2.5"/>
      <feOffset dx="0" dy="0" result="offsetblur"/>
      <feFlood flood-color="#007FFF"/>
      <feComposite in2="offsetblur" operator="in"/>
    </filter>
    <clipPath id="Clip_10">
      <path d="M301.001,375.081 Q305.165,375.081 309.049,377.343 L309.049,382.869 Q305.005,379.485 300.681,379.485 Q295.916,379.485 292.653,382.909 Q289.37,386.312 289.37,391.237 Q289.37,396.102 292.653,399.445 Q295.936,402.788 300.701,402.788 Q303.163,402.788 304.885,401.987 Q305.846,401.587 306.877,400.906 Q307.908,400.226 309.049,399.265 L309.049,404.89 Q305.045,407.152 300.641,407.152 Q294.014,407.152 289.33,402.528 Q284.665,397.863 284.665,391.277 Q284.665,385.371 288.569,380.747 Q293.374,375.081 301.001,375.081 z M193.897,375.081 Q199.242,375.081 202.245,380.286 L198.461,382.528 Q197.4,380.687 196.439,380.126 Q195.438,379.485 193.857,379.485 Q191.915,379.485 190.633,380.586 Q189.352,381.668 189.352,383.309 Q189.352,385.571 192.715,386.953 L195.798,388.214 Q199.562,389.735 201.304,391.928 Q203.046,394.12 203.046,397.303 Q203.046,401.567 200.203,404.35 Q197.34,407.152 193.096,407.152 Q189.072,407.152 186.449,404.77 Q183.867,402.388 183.226,398.064 L187.951,397.022 Q188.271,399.745 189.072,400.786 Q190.513,402.788 193.276,402.788 Q195.458,402.788 196.9,401.327 Q198.341,399.865 198.341,397.623 Q198.341,396.722 198.091,395.971 Q197.84,395.221 197.31,394.59 Q196.779,393.96 195.939,393.409 Q195.098,392.858 193.937,392.358 L190.954,391.117 Q184.608,388.434 184.608,383.269 Q184.608,379.786 187.27,377.443 Q189.933,375.081 193.897,375.081 z M320.46,375.682 L320.46,387.773 L333.793,387.773 L333.793,375.682 L338.458,375.682 L338.458,406.592 L333.793,406.592 L333.793,392.158 L320.46,392.158 L320.46,406.592 L315.796,406.592 L315.796,375.682 L320.46,375.682 z M267.689,375.682 Q273.815,375.682 276.537,377.984 Q279.54,380.546 279.54,384.751 Q279.54,388.034 277.658,390.396 Q275.777,392.758 272.694,393.419 L282.263,406.592 L276.557,406.592 L267.729,393.939 L266.888,393.939 L266.888,406.592 L262.223,406.592 L262.223,375.682 L267.689,375.682 z M268.549,380.066 L266.888,380.066 L266.888,389.875 L268.369,389.875 Q274.996,389.876 274.996,384.811 Q274.996,380.066 268.549,380.066 z M243.605,373.74 L258.359,406.592 L253.255,406.592 L250.011,399.085 L236.778,399.085 L233.335,406.592 L228.31,406.592 L243.605,373.74 z M243.525,384.19 L238.72,394.7 L248.109,394.7 L243.525,384.19 z M225.728,375.682 L225.728,380.066 L213.335,380.066 L213.335,387.493 L225.367,387.493 L225.367,391.877 L213.335,391.877 L213.335,402.207 L225.728,402.207 L225.728,406.592 L208.671,406.592 L208.671,375.682 L225.728,375.682 z M178.642,375.682 L178.642,380.066 L166.25,380.066 L166.25,387.493 L178.281,387.493 L178.281,391.877 L166.25,391.877 L166.25,402.207 L178.642,402.207 L178.642,406.592 L161.585,406.592 L161.585,375.682 L178.642,375.682 z M142.366,375.682 Q148.492,375.682 151.215,377.984 Q154.218,380.546 154.218,384.751 Q154.218,388.034 152.336,390.396 Q150.454,392.758 147.371,393.419 L156.941,406.592 L151.235,406.592 L142.406,393.939 L141.566,393.939 L141.566,406.592 L136.901,406.592 L136.901,375.682 L142.366,375.682 z M143.227,380.066 L141.566,380.066 L141.566,389.875 L143.047,389.875 Q149.673,389.876 149.673,384.811 Q149.673,380.066 143.227,380.066 z"/>
    </clipPath>
    <filter id="Shadow_11">
      <feGaussianBlur in="SourceAlpha" stdDeviation="2.5"/>
      <feOffset dx="0" dy="0" result="offsetblur"/>
      <feFlood flood-color="#FA5A46"/>
      <feComposite in2="offsetblur" operator="in"/>
    </filter>
    <clipPath id="Clip_12">
      <path d="M130.465,58.102 L357.535,58.102 L357.535,105.217 L130.465,105.217 z M215.282,74.933 L219.867,85.443 L210.478,85.443 L215.282,74.933 z M215.362,64.483 L200.068,97.335 L205.092,97.335 L208.536,89.827 L221.769,89.827 L225.012,97.335 L230.117,97.335 L215.362,64.483 z M284.21,66.425 L265.351,66.425 L265.351,70.809 L272.458,70.809 L272.458,97.335 L277.123,97.335 L277.123,70.809 L284.21,70.809 L284.21,66.425 z M152.561,70.228 Q157.466,70.228 160.769,73.592 Q164.072,76.955 164.072,81.94 Q164.072,86.484 161.109,89.567 L156.625,85.103 L150.599,85.103 L157.866,92.15 Q155.424,93.531 152.401,93.531 Q147.957,93.531 144.493,90.248 Q141.17,87.065 141.17,82.06 Q141.17,76.935 144.393,73.592 Q147.596,70.228 152.561,70.228 z M152.621,65.844 Q146.135,65.844 141.37,70.368 Q136.465,75.033 136.465,82.02 Q136.465,89.147 141.651,93.731 Q146.415,97.895 152.561,97.895 Q157.306,97.895 161.169,95.413 L163.592,97.895 L169.458,97.895 L164.353,92.91 Q168.777,88.246 168.777,82.24 Q168.777,74.573 163.172,69.808 Q158.507,65.844 152.621,65.844 z M179.307,66.425 L174.643,66.425 L174.643,86.324 Q174.643,91.209 177.686,94.372 Q181.089,97.895 186.074,97.895 Q191.059,97.895 194.482,94.372 Q197.525,91.209 197.525,86.324 L197.525,66.425 L192.86,66.425 L192.86,85.043 Q192.86,89.087 191.559,90.868 Q189.617,93.531 186.074,93.531 Q182.55,93.531 180.609,90.868 Q179.307,89.027 179.307,85.043 L179.307,66.425 z M293.038,66.425 L288.374,66.425 L288.374,86.324 Q288.374,91.209 291.417,94.372 Q294.82,97.895 299.805,97.895 Q304.79,97.895 308.213,94.372 Q311.256,91.209 311.256,86.324 L311.256,66.425 L306.591,66.425 L306.591,85.043 Q306.591,89.087 305.29,90.868 Q303.348,93.531 299.805,93.531 Q296.281,93.531 294.339,90.868 Q293.038,89.027 293.038,85.043 L293.038,66.425 z M345.69,64.102 L334.699,88.126 L324.089,64.102 L317.582,97.335 L322.407,97.335 L325.73,78.657 L334.619,98.756 L343.768,78.676 L346.751,97.335 L351.535,97.335 L345.69,64.102 z M233.981,64.323 L233.981,97.335 L238.645,97.335 L238.645,75.694 L261.187,99.217 L261.187,66.425 L256.522,66.425 L256.522,87.906 L233.981,64.323 z"/>
    </clipPath>
    <filter id="Shadow_13">
      <feGaussianBlur in="SourceAlpha" stdDeviation="2.5"/>
      <feOffset dx="0" dy="0" result="offsetblur"/>
      <feFlood flood-color="#0080FF"/>
      <feComposite in2="offsetblur" operator="in"/>
    </filter>
    <clipPath id="Clip_14">
      <path d="M233.981,64.323 L256.522,87.906 L256.522,66.425 L261.187,66.425 L261.187,99.217 L238.645,75.694 L238.645,97.335 L233.981,97.335 L233.981,64.323 z M345.69,64.102 L351.535,97.335 L346.751,97.335 L343.768,78.676 L334.619,98.756 L325.73,78.657 L322.407,97.335 L317.582,97.335 L324.089,64.102 L334.699,88.126 L345.69,64.102 z M293.038,66.425 L293.038,85.043 Q293.038,89.027 294.339,90.868 Q296.281,93.531 299.805,93.531 Q303.348,93.531 305.29,90.868 Q306.591,89.087 306.591,85.043 L306.591,66.425 L311.256,66.425 L311.256,86.324 Q311.256,91.209 308.213,94.372 Q304.79,97.895 299.805,97.895 Q294.82,97.895 291.417,94.372 Q288.374,91.209 288.374,86.324 L288.374,66.425 L293.038,66.425 z M179.307,66.425 L179.307,85.043 Q179.307,89.027 180.609,90.868 Q182.55,93.531 186.074,93.531 Q189.617,93.531 191.559,90.868 Q192.86,89.087 192.86,85.043 L192.86,66.425 L197.525,66.425 L197.525,86.324 Q197.525,91.209 194.482,94.372 Q191.059,97.895 186.074,97.895 Q181.089,97.895 177.686,94.372 Q174.643,91.209 174.643,86.324 L174.643,66.425 L179.307,66.425 z M152.621,65.844 Q158.507,65.844 163.172,69.808 Q168.777,74.573 168.777,82.24 Q168.777,88.246 164.353,92.91 L169.458,97.895 L163.592,97.895 L161.169,95.413 Q157.306,97.895 152.561,97.895 Q146.415,97.895 141.651,93.731 Q136.465,89.147 136.465,82.02 Q136.465,75.033 141.37,70.368 Q146.135,65.844 152.621,65.844 z M152.561,70.228 Q147.596,70.228 144.393,73.592 Q141.17,76.935 141.17,82.06 Q141.17,87.065 144.493,90.248 Q147.957,93.531 152.401,93.531 Q155.424,93.531 157.866,92.15 L150.599,85.103 L156.625,85.103 L161.109,89.567 Q164.072,86.484 164.072,81.94 Q164.072,76.955 160.769,73.592 Q157.466,70.228 152.561,70.228 z M284.21,66.425 L284.21,70.809 L277.123,70.809 L277.123,97.335 L272.458,97.335 L272.458,70.809 L265.351,70.809 L265.351,66.425 L284.21,66.425 z M215.362,64.483 L230.117,97.335 L225.012,97.335 L221.769,89.827 L208.536,89.827 L205.092,97.335 L200.068,97.335 L215.362,64.483 z M215.282,74.933 L210.478,85.443 L219.867,85.443 L215.282,74.933 z"/>
    </clipPath>
    <filter id="Shadow_15">
      <feGaussianBlur in="SourceAlpha" stdDeviation="2.5"/>
      <feOffset dx="0" dy="0" result="offsetblur"/>
      <feFlood flood-color="#FA5A46"/>
      <feComposite in2="offsetblur" operator="in"/>
    </filter>
  </defs>
  <g id="Layer_1">
    <path d="M472.63,717.592 C365.487,717.592 278.63,638.57 278.63,541.092 C278.63,443.614 365.487,364.592 472.63,364.592 C579.773,364.592 666.63,443.614 666.63,541.092 C666.63,638.57 579.773,717.592 472.63,717.592 z" fill="#FA5A46" display="none"/>
    <path d="M264.13,543.592 C166.652,543.592 87.63,472.853 87.63,385.592 C87.63,298.331 166.652,227.592 264.13,227.592 C361.609,227.592 440.63,298.331 440.63,385.592 C440.63,472.853 361.609,543.592 264.13,543.592 z" fill="#0FCCEF" display="none"/>
    <path d="M377.63,417.592 C264.136,417.592 172.13,349.763 172.13,266.092 C172.13,182.421 264.136,114.592 377.63,114.592 C491.125,114.592 583.13,182.421 583.13,266.092 C583.13,349.763 491.125,417.592 377.63,417.592 z" fill="#8751F7" display="none"/>
    <path d="M169.38,488.092 C89.713,488.092 25.13,409.07 25.13,311.592 C25.13,214.114 89.713,135.092 169.38,135.092 C249.047,135.092 313.63,214.114 313.63,311.592 C313.63,409.07 249.047,488.092 169.38,488.092 z" fill="#F29729" display="none"/>
    <path d="M-53.559,755.831 C-107.252,837.189 -216.732,859.615 -298.089,805.922 C-379.447,752.23 -401.874,642.749 -348.181,561.392 C-294.488,480.034 -185.008,457.607 -103.65,511.3 C-22.292,564.993 0.134,674.473 -53.559,755.831 z" fill="#F2F2F2" display="none"/>
    <path d="M54.63,337.092 C-98.905,337.092 -223.37,214.418 -223.37,63.092 C-223.37,-88.234 -98.905,-210.908 54.63,-210.908 C208.165,-210.908 332.63,-88.234 332.63,63.092 C332.63,214.418 208.165,337.092 54.63,337.092 z" fill="#3274D4" display="none"/>
    <path d="M36.13,551.592 C-49.198,551.592 -118.37,482.42 -118.37,397.092 C-118.37,311.764 -49.198,242.592 36.13,242.592 C121.458,242.592 190.63,311.764 190.63,397.092 C190.63,482.42 121.458,551.592 36.13,551.592 z" fill="#FA5A46" display="none"/>
    <path d="M627.63,417.592 C482.655,417.592 365.13,300.067 365.13,155.092 C365.13,10.117 482.655,-107.408 627.63,-107.408 C772.605,-107.408 890.13,10.117 890.13,155.092 C890.13,300.067 772.605,417.592 627.63,417.592 z" fill="#F29729" display="none"/>
    <path d="M324.38,242.592 C193.627,242.592 87.63,158.645 87.63,55.092 C87.63,-48.462 193.627,-132.408 324.38,-132.408 C455.134,-132.408 561.13,-48.462 561.13,55.092 C561.13,158.645 455.134,242.592 324.38,242.592 z" fill="#0FCCEF" display="none"/>
    <g>
      <g clip-path="url(#Clip_1)">
        <path d="M390.829,629.267 C283.686,629.267 196.829,550.245 196.829,452.767 C196.829,355.289 283.686,276.267 390.829,276.267 C497.972,276.267 584.829,355.289 584.829,452.767 C584.829,550.245 497.972,629.267 390.829,629.267 z" fill="#FA5A46"/>
        <path d="M182.329,455.267 C84.851,455.267 5.829,384.528 5.829,297.267 C5.829,210.006 84.851,139.267 182.329,139.267 C279.807,139.267 358.829,210.006 358.829,297.267 C358.829,384.528 279.807,455.267 182.329,455.267 z" fill="#0FCCEF"/>
        <path d="M295.829,329.267 C182.334,329.267 90.329,261.438 90.329,177.767 C90.329,94.096 182.334,26.267 295.829,26.267 C409.323,26.267 501.329,94.096 501.329,177.767 C501.329,261.438 409.323,329.267 295.829,329.267 z" fill="#8751F7"/>
        <path d="M87.579,399.767 C7.912,399.767 -56.671,320.745 -56.671,223.267 C-56.671,125.789 7.912,46.767 87.579,46.767 C167.246,46.767 231.829,125.789 231.829,223.267 C231.829,320.745 167.246,399.767 87.579,399.767 z" fill="#F29729"/>
        <path d="M-27.171,248.767 C-180.706,248.767 -305.171,126.093 -305.171,-25.233 C-305.171,-176.559 -180.706,-299.233 -27.171,-299.233 C126.364,-299.233 250.829,-176.559 250.829,-25.233 C250.829,126.093 126.364,248.767 -27.171,248.767 z" fill="#3274D4"/>
        <path d="M-8.671,468.267 C-93.999,468.267 -163.171,399.095 -163.171,313.767 C-163.171,228.439 -93.999,159.267 -8.671,159.267 C76.657,159.267 145.829,228.439 145.829,313.767 C145.829,399.095 76.657,468.267 -8.671,468.267 z" fill="#FA5A46"/>
        <path d="M545.829,329.267 C400.854,329.267 283.329,211.742 283.329,66.767 C283.329,-78.208 400.854,-195.733 545.829,-195.733 C690.804,-195.733 808.329,-78.208 808.329,66.767 C808.329,211.742 690.804,329.267 545.829,329.267 z" fill="#F29729"/>
        <path d="M99.579,148.267 C-31.175,148.267 -137.171,64.321 -137.171,-39.233 C-137.171,-142.786 -31.175,-226.733 99.579,-226.733 C230.332,-226.733 336.329,-142.786 336.329,-39.233 C336.329,64.321 230.332,148.267 99.579,148.267 z" fill="#0FCCEF"/>
      </g>
      <path d="M348.473,54.335 L453.747,236.675 L348.473,419.016 L137.924,419.016 L32.65,236.675 L137.924,54.335 L348.473,54.335 z" clip-path="url(#Clip_2)" filter="url(#Shadow_3)" fill="rgba(0,0,0,0.75)"/>
    </g>
    <g>
      <text transform="matrix(1, 0, 0, 1, 255.612, 243.256)">
        <tspan x="-167.565" y="44.256" font-family="MaturaMTScriptCapitals" font-size="287" fill="#FFFFFF">Q</tspan>
      </text>
      <path d="M159.517,167.415 L135.273,159.427 Q235.191,102.392 306.24,102.392 Q352.765,102.392 372.665,123.552 Q392.704,144.853 392.704,171.339 Q392.704,199.366 376.308,232.018 Q359.772,264.95 335.809,286.812 Q348.141,297.742 365.378,319.884 L344.217,355.198 Q323.477,340.344 294.188,323.668 Q263.218,341.605 227.483,350.574 Q191.328,359.683 173.25,359.683 Q156.994,359.683 135.694,350.294 Q114.253,341.045 104.443,324.368 Q94.634,307.832 94.634,289.614 Q94.634,246.452 133.031,207.634 Q171.429,168.817 233.93,151.58 L229.445,170.358 Q194.971,183.111 168.205,204.411 Q141.439,225.712 130.929,248.554 Q161.899,318.763 226.923,318.763 Q244.86,318.763 269.244,311.476 Q230.987,295.36 202.399,291.576 Q217.253,277.142 230.776,265.581 Q244.3,254.02 253.409,247.854 Q272.047,248.134 287.742,254.861 Q303.998,262.008 320.534,274.059 Q330.484,246.733 330.484,218.705 Q330.484,176.804 311.705,155.504 Q292.927,134.203 260.976,134.203 Q215.852,134.203 159.517,167.415 z" fill-opacity="0" stroke="#000000" stroke-width="0.5"/>
      <path d="M82.383,88.142 L404.954,88.142 L404.954,373.933 L82.383,373.933 z M246.245,135.14 L242.766,135.525 C244.512,135.223 243.359,135.397 246.245,135.14 z M234.821,136.902 L230.531,137.736 C232.709,137.186 231.29,137.514 234.821,136.902 z M306.24,102.142 C258.824,102.142 201.795,121.167 135.149,159.21 L134.661,159.489 L135.195,159.665 L159.439,167.653 L159.644,167.631 C197.165,145.51 230.943,134.453 260.976,134.453 C282.207,134.453 299.048,141.524 311.518,155.669 C323.992,169.818 330.234,190.827 330.234,218.705 C329.817,237.44 327.072,256.053 320.405,273.661 C310.143,266.364 299.43,259.642 287.843,254.632 C277.346,250.133 265.87,247.791 253.412,247.604 L253.268,247.647 C247.187,251.763 239.636,257.678 230.614,265.391 C221.594,273.102 212.131,281.771 202.225,291.397 L201.855,291.757 L202.366,291.824 C225.228,295.124 247.253,302.481 268.485,311.432 C254.946,315.289 241.081,318.498 226.923,318.513 C179.541,317.707 149.739,290.635 131.205,248.557 C139.691,231.002 153.141,216.603 168.361,204.607 C186.184,190.423 206.574,179.085 229.532,170.592 L229.657,170.546 L229.688,170.416 L234.173,151.638 L234.271,151.226 L233.863,151.339 C192.155,162.841 158.484,181.547 132.853,207.459 C107.211,233.381 94.384,260.769 94.383,289.614 C94.384,301.805 97.666,313.434 104.228,324.496 C110.796,335.661 121.254,344.337 135.595,350.523 C149.823,356.795 162.375,359.933 173.25,359.933 C185.327,359.933 203.422,356.894 227.544,350.816 C250.759,344.574 273.436,336.268 294.186,323.955 C311.222,333.768 328.094,343.92 344.072,355.401 L344.292,355.56 L344.431,355.327 L365.592,320.012 L365.68,319.866 L365.575,319.73 C356.499,308.153 347.105,296.707 336.178,286.808 C352.856,271.201 366.423,252.616 376.532,232.13 C387.479,210.33 392.954,190.066 392.954,171.339 C392.954,153.616 386.249,137.627 372.847,123.381 C359.526,109.216 337.32,102.142 306.24,102.142 z" clip-path="url(#Clip_4)" filter="url(#InnerShadow_5)" fill="rgba(0,0,0,0.75)"/>
    </g>
    <text transform="matrix(0.499, -0.867, 0.867, 0.499, 89.441, 100.872)">
      <tspan x="-126.25" y="11.678" font-family="Futura-CondensedMedium" font-size="32" fill="#000000">Thomas Jefferson</tspan>
    </text>
    <text transform="matrix(1, -0.001, 0.001, 1, 247.612, 34.261)">
      <tspan x="-111.222" y="11.056" font-family="Futura-CondensedMedium" font-size="32" fill="#000000">Science &amp; Technology</tspan>
    </text>
    <g display="none">
      <path d="M855.577,133.181 Q877.298,133.181 890.191,136.544 Q903.224,139.908 912.192,147.895 Q921.301,156.164 926.626,168.496 Q932.092,180.968 932.092,193.72 Q932.092,216.983 914.294,233.099 Q931.531,238.984 941.481,253.699 Q951.571,268.273 951.571,287.612 Q951.571,312.977 933.633,330.494 Q922.843,341.284 909.39,345.488 Q894.675,349.552 872.534,349.552 L823.065,349.552 L823.065,133.181 L855.577,133.181 z M872.253,253.418 L855.717,253.418 L855.717,318.862 L875.897,318.862 Q898.039,318.862 908.409,310.174 Q919.339,300.785 919.339,286.351 Q919.339,272.337 908.829,262.808 Q898.599,253.418 872.253,253.418 z M867.208,163.17 L855.717,163.17 L855.717,226.092 L865.947,226.092 Q884.165,226.092 892.643,218.034 Q901.122,209.976 901.122,194.281 Q901.122,179.006 892.433,171.088 Q883.745,163.17 867.208,163.17 z M692.738,119.588 L796.019,349.552 L760.284,349.552 L737.582,297.001 L644.952,297.001 L620.848,349.552 L585.674,349.552 L692.738,119.588 z M692.178,192.739 L658.545,266.311 L724.269,266.311 L692.178,192.739 z M503.834,133.181 L503.834,318.862 L567.456,318.862 L567.456,349.552 L471.182,349.552 L471.182,133.181 L503.834,133.181 z" clip-path="url(#Clip_6)" filter="url(#Shadow_7)" fill="rgba(0,0,0,0.75)"/>
      <text transform="matrix(1, 0, 0, 1, 724.441, 239.5)">
        <tspan x="-279.185" y="110.052" font-family="Futura-Medium" font-size="287" fill="#000000">LAB</tspan>
      </text>
    </g>
    <g>
      <text transform="matrix(1, 0, 0, 1, 247.612, 398.603)">
        <tspan x="-114.415" y="7.988" font-family="Futura-Medium" font-size="41" fill="#000000">RESEARCH</tspan>
      </text>
      <g>
        <path d="M301.001,375.081 Q305.165,375.081 309.049,377.343 L309.049,382.869 Q305.005,379.485 300.681,379.485 Q295.916,379.485 292.653,382.909 Q289.37,386.312 289.37,391.237 Q289.37,396.102 292.653,399.445 Q295.936,402.788 300.701,402.788 Q303.163,402.788 304.885,401.987 Q305.846,401.587 306.877,400.906 Q307.908,400.226 309.049,399.265 L309.049,404.89 Q305.045,407.152 300.641,407.152 Q294.014,407.152 289.33,402.528 Q284.665,397.863 284.665,391.277 Q284.665,385.371 288.569,380.747 Q293.374,375.081 301.001,375.081 z M193.897,375.081 Q199.242,375.081 202.245,380.286 L198.461,382.528 Q197.4,380.687 196.439,380.126 Q195.438,379.485 193.857,379.485 Q191.915,379.485 190.633,380.586 Q189.352,381.668 189.352,383.309 Q189.352,385.571 192.715,386.953 L195.798,388.214 Q199.562,389.735 201.304,391.928 Q203.046,394.12 203.046,397.303 Q203.046,401.567 200.203,404.35 Q197.34,407.152 193.096,407.152 Q189.072,407.152 186.449,404.77 Q183.867,402.388 183.226,398.064 L187.951,397.022 Q188.271,399.745 189.072,400.786 Q190.513,402.788 193.276,402.788 Q195.458,402.788 196.9,401.327 Q198.341,399.865 198.341,397.623 Q198.341,396.722 198.091,395.971 Q197.84,395.221 197.31,394.59 Q196.779,393.96 195.939,393.409 Q195.098,392.858 193.937,392.358 L190.954,391.117 Q184.608,388.434 184.608,383.269 Q184.608,379.786 187.27,377.443 Q189.933,375.081 193.897,375.081 z M320.46,375.682 L320.46,387.773 L333.793,387.773 L333.793,375.682 L338.458,375.682 L338.458,406.592 L333.793,406.592 L333.793,392.158 L320.46,392.158 L320.46,406.592 L315.796,406.592 L315.796,375.682 L320.46,375.682 z M267.689,375.682 Q273.815,375.682 276.537,377.984 Q279.54,380.546 279.54,384.751 Q279.54,388.034 277.658,390.396 Q275.777,392.758 272.694,393.419 L282.263,406.592 L276.557,406.592 L267.729,393.939 L266.888,393.939 L266.888,406.592 L262.223,406.592 L262.223,375.682 L267.689,375.682 z M268.549,380.066 L266.888,380.066 L266.888,389.875 L268.369,389.875 Q274.996,389.876 274.996,384.811 Q274.996,380.066 268.549,380.066 z M243.605,373.74 L258.359,406.592 L253.255,406.592 L250.011,399.085 L236.778,399.085 L233.335,406.592 L228.31,406.592 L243.605,373.74 z M243.525,384.19 L238.72,394.7 L248.109,394.7 L243.525,384.19 z M225.728,375.682 L225.728,380.066 L213.335,380.066 L213.335,387.493 L225.367,387.493 L225.367,391.877 L213.335,391.877 L213.335,402.207 L225.728,402.207 L225.728,406.592 L208.671,406.592 L208.671,375.682 L225.728,375.682 z M178.642,375.682 L178.642,380.066 L166.25,380.066 L166.25,387.493 L178.281,387.493 L178.281,391.877 L166.25,391.877 L166.25,402.207 L178.642,402.207 L178.642,406.592 L161.585,406.592 L161.585,375.682 L178.642,375.682 z M142.366,375.682 Q148.492,375.682 151.215,377.984 Q154.218,380.546 154.218,384.751 Q154.218,388.034 152.336,390.396 Q150.454,392.758 147.371,393.419 L156.941,406.592 L151.235,406.592 L142.406,393.939 L141.566,393.939 L141.566,406.592 L136.901,406.592 L136.901,375.682 L142.366,375.682 z M143.227,380.066 L141.566,380.066 L141.566,389.875 L143.047,389.875 Q149.673,389.876 149.673,384.811 Q149.673,380.066 143.227,380.066 z" fill="rgba(0,0,0,0.75)" clip-path="url(#Clip_8)" filter="url(#Shadow_9)"/>
        <path d="M301.001,376.331 C303.551,376.331 306.018,377.024 308.42,378.423 L307.799,377.343 L307.799,382.869 L309.851,381.91 C306.941,379.475 303.874,378.235 300.681,378.235 C297.163,378.235 294.16,379.516 291.748,382.046 C289.337,384.545 288.12,387.633 288.12,391.237 C288.12,394.804 289.34,397.856 291.761,400.321 C294.186,402.79 297.191,404.038 300.701,404.038 C302.514,404.038 304.087,403.737 305.412,403.121 C306.082,402.843 306.815,402.445 307.566,401.949 C308.295,401.468 309.058,400.891 309.854,400.221 L309.049,399.265 L307.799,399.265 L307.799,404.89 L308.434,403.802 C305.95,405.205 303.359,405.902 300.641,405.902 C296.551,405.902 293.097,404.49 290.208,401.638 C287.338,398.769 285.915,395.336 285.915,391.277 C285.915,387.637 287.111,384.412 289.524,381.553 C292.486,378.06 296.281,376.331 301.001,376.331 z M301.001,373.831 C295.552,373.831 291.058,375.879 287.616,379.938 C284.822,383.247 283.415,387.043 283.415,391.277 C283.415,396 285.102,400.068 288.446,403.412 C291.809,406.732 295.895,408.402 300.641,408.402 C303.795,408.402 306.809,407.591 309.664,405.978 C310.056,405.757 310.299,405.341 310.299,404.89 L310.299,399.265 C310.299,398.202 309.057,397.624 308.244,398.309 C307.519,398.919 306.833,399.437 306.188,399.863 C305.564,400.275 304.969,400.598 304.404,400.833 C303.387,401.305 302.171,401.538 300.701,401.538 C297.858,401.538 295.497,400.557 293.545,398.569 C291.588,396.576 290.62,394.156 290.62,391.237 C290.62,388.274 291.591,385.81 293.553,383.777 C295.497,381.737 297.846,380.735 300.681,380.735 C303.253,380.735 305.765,381.751 308.247,383.827 C309.061,384.508 310.299,383.93 310.299,382.869 L310.299,377.343 C310.299,376.898 310.063,376.487 309.678,376.263 C306.902,374.646 304.003,373.831 301.001,373.831 z M193.897,376.331 C196.996,376.331 199.376,377.815 201.162,380.911 L201.608,379.211 L197.824,381.453 L199.544,381.904 C198.738,380.505 197.936,379.552 197.069,379.046 C196.227,378.506 195.135,378.235 193.857,378.235 C192.274,378.235 190.909,378.702 189.819,379.638 C188.693,380.588 188.102,381.844 188.102,383.309 C188.102,385.416 189.579,387.016 192.241,388.109 L195.325,389.371 C197.654,390.312 199.313,391.432 200.325,392.705 C201.304,393.937 201.796,395.454 201.796,397.303 C201.796,399.816 200.978,401.841 199.328,403.456 C197.657,405.092 195.603,405.902 193.096,405.902 C190.714,405.902 188.8,405.216 187.29,403.845 C185.799,402.469 184.85,400.495 184.463,397.88 L183.495,399.284 L188.22,398.243 L186.709,397.168 C186.947,399.189 187.377,400.633 188.081,401.548 C189.262,403.189 191.045,404.038 193.276,404.038 C195.06,404.038 196.59,403.421 197.79,402.204 C198.987,400.99 199.591,399.439 199.591,397.623 C199.591,396.892 199.487,396.209 199.277,395.576 C199.059,394.924 198.721,394.325 198.266,393.785 C197.83,393.267 197.281,392.794 196.623,392.363 C195.999,391.954 195.268,391.571 194.431,391.21 L191.434,389.963 C187.637,388.357 185.858,386.157 185.858,383.269 C185.858,381.308 186.589,379.707 188.096,378.382 C189.639,377.013 191.551,376.331 193.897,376.331 z M193.897,373.831 C190.957,373.831 188.451,374.724 186.441,376.508 C184.401,378.302 183.358,380.586 183.358,383.269 C183.358,387.267 185.809,390.299 190.467,392.268 L193.456,393.512 C194.153,393.812 194.757,394.13 195.254,394.455 C195.717,394.758 196.082,395.073 196.353,395.395 C196.607,395.696 196.788,396.018 196.905,396.367 C197.028,396.735 197.091,397.153 197.091,397.623 C197.091,398.797 196.734,399.715 196.01,400.449 C195.288,401.181 194.402,401.538 193.276,401.538 C191.824,401.538 190.804,401.053 190.086,400.056 C189.699,399.551 189.382,398.486 189.192,396.876 C189.106,396.142 188.404,395.643 187.682,395.802 L182.957,396.843 C182.316,396.984 181.894,397.597 181.99,398.247 C182.456,401.397 183.657,403.894 185.602,405.689 C187.596,407.5 190.113,408.402 193.096,408.402 C196.247,408.402 198.931,407.344 201.077,405.243 C203.217,403.148 204.296,400.475 204.296,397.303 C204.296,394.907 203.626,392.841 202.283,391.15 C200.972,389.501 198.961,388.144 196.267,387.055 L193.189,385.796 C191.368,385.048 190.602,384.218 190.602,383.309 C190.602,382.585 190.865,382.026 191.44,381.542 C192.066,381.003 192.85,380.735 193.857,380.735 C194.687,380.735 195.316,380.891 195.765,381.179 C196.223,381.447 196.77,382.096 197.378,383.152 C197.725,383.756 198.499,383.959 199.098,383.604 L202.882,381.362 C203.471,381.013 203.67,380.255 203.327,379.661 C201.11,375.818 197.924,373.831 193.897,373.831 z M319.21,375.682 L319.21,387.773 C319.21,388.464 319.77,389.023 320.46,389.023 L333.793,389.023 C334.483,389.023 335.043,388.464 335.043,387.773 L335.043,375.682 L333.793,376.932 L338.458,376.932 L337.208,375.682 L337.208,406.592 L338.458,405.342 L333.793,405.342 L335.043,406.592 L335.043,392.158 C335.043,391.467 334.483,390.908 333.793,390.908 L320.46,390.908 C319.77,390.908 319.21,391.467 319.21,392.158 L319.21,406.592 L320.46,405.342 L315.796,405.342 L317.046,406.592 L317.046,375.682 L315.796,376.932 L320.46,376.932 L319.21,375.682 z M321.71,375.682 C321.71,374.991 321.15,374.432 320.46,374.432 L315.796,374.432 C315.105,374.432 314.546,374.991 314.546,375.682 L314.546,406.592 C314.546,407.282 315.105,407.842 315.796,407.842 L320.46,407.842 C321.15,407.842 321.71,407.282 321.71,406.592 L321.71,392.158 L320.46,393.408 L333.793,393.408 L332.543,392.158 L332.543,406.592 C332.543,407.282 333.103,407.842 333.793,407.842 L338.458,407.842 C339.148,407.842 339.708,407.282 339.708,406.592 L339.708,375.682 C339.708,374.991 339.148,374.432 338.458,374.432 L333.793,374.432 C333.103,374.432 332.543,374.991 332.543,375.682 L332.543,387.773 L333.793,386.523 L320.46,386.523 L321.71,387.773 L321.71,375.682 z M267.689,376.932 C271.505,376.932 274.18,377.628 275.73,378.938 C277.444,380.401 278.29,382.307 278.29,384.751 C278.29,386.663 277.755,388.269 276.681,389.617 C275.608,390.963 274.207,391.816 272.432,392.197 C271.548,392.386 271.151,393.422 271.682,394.154 L281.251,407.326 L282.263,405.342 L276.557,405.342 L277.582,405.876 L268.754,393.224 C268.52,392.889 268.137,392.689 267.729,392.689 L266.888,392.689 C266.197,392.689 265.638,393.249 265.638,393.939 L265.638,406.592 L266.888,405.342 L262.223,405.342 L263.473,406.592 L263.473,375.682 L262.223,376.932 L267.689,376.932 z M267.689,374.432 L262.223,374.432 C261.533,374.432 260.973,374.991 260.973,375.682 L260.973,406.592 C260.973,407.282 261.533,407.842 262.223,407.842 L266.888,407.842 C267.578,407.842 268.138,407.282 268.138,406.592 L268.138,393.939 L266.888,393.939 L266.888,395.189 L267.729,395.189 L267.729,393.939 L266.703,394.655 L275.532,407.307 C275.766,407.642 276.149,407.842 276.557,407.842 L282.263,407.842 C283.284,407.842 283.874,406.683 283.274,405.857 L273.705,392.684 L272.955,394.641 C275.29,394.141 277.199,392.979 278.636,391.175 C280.071,389.373 280.79,387.216 280.79,384.751 C280.79,381.588 279.634,378.983 277.349,377.033 C275.264,375.27 272.041,374.432 267.689,374.432 z M268.549,378.816 L266.888,378.816 C266.197,378.816 265.638,379.376 265.638,380.066 L265.638,389.875 C265.638,390.566 266.197,391.125 266.888,391.125 L268.369,391.125 C273.415,391.126 276.246,388.962 276.246,384.811 C276.246,380.86 273.469,378.816 268.549,378.816 z M268.549,381.316 C272.225,381.316 273.746,382.435 273.746,384.811 C273.746,387.412 272.159,388.626 268.369,388.625 L266.888,388.625 L268.138,389.875 L268.138,380.066 L266.888,381.316 L268.549,381.316 z M242.465,374.252 L257.219,407.104 L258.359,405.342 L253.255,405.342 L254.402,406.096 L251.159,398.589 C250.961,398.131 250.51,397.835 250.011,397.835 L236.778,397.835 C236.29,397.835 235.846,398.119 235.642,398.563 L232.199,406.071 L233.335,405.342 L228.31,405.342 L229.443,407.119 L244.738,374.267 L242.465,374.252 z M244.745,373.228 C244.307,372.251 242.924,372.242 242.472,373.212 L227.177,406.064 C226.791,406.893 227.396,407.842 228.31,407.842 L233.335,407.842 C233.824,407.842 234.268,407.557 234.471,407.113 L237.915,399.606 L236.778,400.335 L250.011,400.335 L248.864,399.58 L252.107,407.088 C252.305,407.545 252.756,407.842 253.255,407.842 L258.359,407.842 C259.266,407.842 259.871,406.907 259.5,406.08 L244.745,373.228 z M242.388,383.67 L237.583,394.181 C237.205,395.008 237.81,395.95 238.72,395.95 L248.109,395.95 C249.01,395.95 249.615,395.026 249.255,394.2 L244.671,383.69 C244.239,382.699 242.838,382.687 242.388,383.67 z M244.662,384.71 L242.379,384.69 L246.964,395.2 L248.109,393.45 L238.72,393.45 L239.857,395.22 L244.662,384.71 z M224.478,375.682 L224.478,380.066 L225.728,378.816 L213.335,378.816 C212.645,378.816 212.085,379.376 212.085,380.066 L212.085,387.493 C212.085,388.183 212.645,388.743 213.335,388.743 L225.367,388.743 L224.117,387.493 L224.117,391.877 L225.367,390.627 L213.335,390.627 C212.645,390.627 212.085,391.187 212.085,391.877 L212.085,402.207 C212.085,402.898 212.645,403.457 213.335,403.457 L225.728,403.457 L224.478,402.207 L224.478,406.592 L225.728,405.342 L208.671,405.342 L209.921,406.592 L209.921,375.682 L208.671,376.932 L225.728,376.932 L224.478,375.682 z M226.978,375.682 C226.978,374.991 226.418,374.432 225.728,374.432 L208.671,374.432 C207.981,374.432 207.421,374.991 207.421,375.682 L207.421,406.592 C207.421,407.282 207.981,407.842 208.671,407.842 L225.728,407.842 C226.418,407.842 226.978,407.282 226.978,406.592 L226.978,402.207 C226.978,401.517 226.418,400.957 225.728,400.957 L213.335,400.957 L214.585,402.207 L214.585,391.877 L213.335,393.127 L225.367,393.127 C226.058,393.127 226.617,392.568 226.617,391.877 L226.617,387.493 C226.617,386.803 226.058,386.243 225.367,386.243 L213.335,386.243 L214.585,387.493 L214.585,380.066 L213.335,381.316 L225.728,381.316 C226.418,381.316 226.978,380.756 226.978,380.066 L226.978,375.682 z M177.392,375.682 L177.392,380.066 L178.642,378.816 L166.25,378.816 C165.559,378.816 165,379.376 165,380.066 L165,387.493 C165,388.183 165.559,388.743 166.25,388.743 L178.281,388.743 L177.031,387.493 L177.031,391.877 L178.281,390.627 L166.25,390.627 C165.559,390.627 165,391.187 165,391.877 L165,402.207 C165,402.898 165.559,403.457 166.25,403.457 L178.642,403.457 L177.392,402.207 L177.392,406.592 L178.642,405.342 L161.585,405.342 L162.835,406.592 L162.835,375.682 L161.585,376.932 L178.642,376.932 L177.392,375.682 z M179.892,375.682 C179.892,374.991 179.332,374.432 178.642,374.432 L161.585,374.432 C160.895,374.432 160.335,374.991 160.335,375.682 L160.335,406.592 C160.335,407.282 160.895,407.842 161.585,407.842 L178.642,407.842 C179.332,407.842 179.892,407.282 179.892,406.592 L179.892,402.207 C179.892,401.517 179.332,400.957 178.642,400.957 L166.25,400.957 L167.5,402.207 L167.5,391.877 L166.25,393.127 L178.281,393.127 C178.972,393.127 179.531,392.568 179.531,391.877 L179.531,387.493 C179.531,386.803 178.972,386.243 178.281,386.243 L166.25,386.243 L167.5,387.493 L167.5,380.066 L166.25,381.316 L178.642,381.316 C179.332,381.316 179.892,380.756 179.892,380.066 L179.892,375.682 z M142.366,376.932 C146.182,376.932 148.858,377.628 150.408,378.938 C152.122,380.401 152.968,382.307 152.968,384.751 C152.968,386.663 152.432,388.269 151.358,389.617 C150.286,390.963 148.885,391.816 147.109,392.197 C146.225,392.386 145.829,393.422 146.36,394.154 L155.929,407.326 L156.941,405.342 L151.235,405.342 L152.26,405.876 L143.431,393.224 C143.198,392.889 142.815,392.689 142.406,392.689 L141.566,392.689 C140.875,392.689 140.316,393.249 140.316,393.939 L140.316,406.592 L141.566,405.342 L136.901,405.342 L138.151,406.592 L138.151,375.682 L136.901,376.932 L142.366,376.932 z M142.366,374.432 L136.901,374.432 C136.211,374.432 135.651,374.991 135.651,375.682 L135.651,406.592 C135.651,407.282 136.211,407.842 136.901,407.842 L141.566,407.842 C142.256,407.842 142.816,407.282 142.816,406.592 L142.816,393.939 L141.566,393.939 L141.566,395.189 L142.406,395.189 L142.406,393.939 L141.381,394.655 L150.21,407.307 C150.444,407.642 150.826,407.842 151.235,407.842 L156.941,407.842 C157.962,407.842 158.552,406.683 157.952,405.857 L148.383,392.684 L147.633,394.641 C149.968,394.141 151.877,392.979 153.314,391.175 C154.749,389.373 155.468,387.216 155.468,384.751 C155.468,381.588 154.312,378.983 152.026,377.033 C149.942,375.27 146.718,374.432 142.366,374.432 z M143.227,378.816 L141.566,378.816 C140.875,378.816 140.316,379.376 140.316,380.066 L140.316,389.875 C140.316,390.566 140.875,391.125 141.566,391.125 L143.047,391.125 C148.093,391.126 150.923,388.962 150.923,384.811 C150.923,380.86 148.147,378.816 143.227,378.816 L143.227,380.066 L143.783,378.946 L143.783,378.946 C143.61,378.861 143.42,378.816 143.227,378.816 z M143.227,381.316 L143.227,380.066 L142.671,381.186 L142.671,381.186 C142.844,381.271 143.034,381.316 143.227,381.316 C146.903,381.316 148.423,382.435 148.423,384.811 C148.423,387.412 146.836,388.626 143.047,388.625 L141.566,388.625 L142.816,389.875 L142.816,380.066 L141.566,381.316 L143.227,381.316 z" fill="rgba(0,0,0,0.75)" clip-path="url(#Clip_8)" filter="url(#Shadow_9)"/>
      </g>
      <g>
        <path d="M130.901,367.74 L344.458,367.74 L344.458,413.152 L130.901,413.152 z M143.227,380.066 Q149.673,380.066 149.673,384.811 Q149.673,389.876 143.047,389.875 L141.566,389.875 L141.566,380.066 L143.227,380.066 z M142.366,375.682 L136.901,375.682 L136.901,406.592 L141.566,406.592 L141.566,393.939 L142.406,393.939 L151.235,406.592 L156.941,406.592 L147.371,393.419 Q150.454,392.758 152.336,390.396 Q154.218,388.034 154.218,384.751 Q154.218,380.546 151.215,377.984 Q148.492,375.682 142.366,375.682 z M178.642,375.682 L161.585,375.682 L161.585,406.592 L178.642,406.592 L178.642,402.207 L166.25,402.207 L166.25,391.877 L178.281,391.877 L178.281,387.493 L166.25,387.493 L166.25,380.066 L178.642,380.066 L178.642,375.682 z M225.728,375.682 L208.671,375.682 L208.671,406.592 L225.728,406.592 L225.728,402.207 L213.335,402.207 L213.335,391.877 L225.367,391.877 L225.367,387.493 L213.335,387.493 L213.335,380.066 L225.728,380.066 L225.728,375.682 z M243.525,384.19 L248.109,394.7 L238.72,394.7 L243.525,384.19 z M243.605,373.74 L228.31,406.592 L233.335,406.592 L236.778,399.085 L250.011,399.085 L253.255,406.592 L258.359,406.592 L243.605,373.74 z M268.549,380.066 Q274.996,380.066 274.996,384.811 Q274.996,389.876 268.369,389.875 L266.888,389.875 L266.888,380.066 L268.549,380.066 z M267.689,375.682 L262.223,375.682 L262.223,406.592 L266.888,406.592 L266.888,393.939 L267.729,393.939 L276.557,406.592 L282.263,406.592 L272.694,393.419 Q275.777,392.758 277.658,390.396 Q279.54,388.034 279.54,384.751 Q279.54,380.546 276.537,377.984 Q273.815,375.682 267.689,375.682 z M320.46,375.682 L315.796,375.682 L315.796,406.592 L320.46,406.592 L320.46,392.158 L333.793,392.158 L333.793,406.592 L338.458,406.592 L338.458,375.682 L333.793,375.682 L333.793,387.773 L320.46,387.773 L320.46,375.682 z M193.897,375.081 Q189.933,375.081 187.27,377.443 Q184.608,379.786 184.608,383.269 Q184.608,388.434 190.954,391.117 L193.937,392.358 Q195.098,392.858 195.939,393.409 Q196.779,393.96 197.31,394.59 Q197.84,395.221 198.091,395.971 Q198.341,396.722 198.341,397.623 Q198.341,399.865 196.9,401.327 Q195.458,402.788 193.276,402.788 Q190.513,402.788 189.072,400.786 Q188.271,399.745 187.951,397.022 L183.226,398.064 Q183.867,402.388 186.449,404.77 Q189.072,407.152 193.096,407.152 Q197.34,407.152 200.203,404.35 Q203.046,401.567 203.046,397.303 Q203.046,394.12 201.304,391.928 Q199.562,389.735 195.798,388.214 L192.715,386.953 Q189.352,385.571 189.352,383.309 Q189.352,381.668 190.633,380.586 Q191.915,379.485 193.857,379.485 Q195.438,379.485 196.439,380.126 Q197.4,380.687 198.461,382.528 L202.245,380.286 Q199.242,375.081 193.897,375.081 z M301.001,375.081 Q293.374,375.081 288.569,380.747 Q284.665,385.371 284.665,391.277 Q284.665,397.863 289.33,402.528 Q294.014,407.152 300.641,407.152 Q305.045,407.152 309.049,404.89 L309.049,399.265 Q307.908,400.226 306.877,400.906 Q305.846,401.587 304.885,401.987 Q303.163,402.788 300.701,402.788 Q295.936,402.788 292.653,399.445 Q289.37,396.102 289.37,391.237 Q289.37,386.312 292.653,382.909 Q295.916,379.485 300.681,379.485 Q305.005,379.485 309.049,382.869 L309.049,377.343 Q305.165,375.081 301.001,375.081 z" fill="rgba(0,0,0,0.75)" clip-path="url(#Clip_10)" filter="url(#Shadow_11)"/>
        <path d="M130.901,368.99 L344.458,368.99 L343.208,367.74 L343.208,413.152 L344.458,411.902 L130.901,411.902 L132.151,413.152 L132.151,367.74 L130.901,368.99 z M130.901,366.49 C130.211,366.49 129.651,367.049 129.651,367.74 L129.651,413.152 C129.651,413.843 130.211,414.402 130.901,414.402 L344.458,414.402 C345.148,414.402 345.708,413.843 345.708,413.152 L345.708,367.74 C345.708,367.049 345.148,366.49 344.458,366.49 L130.901,366.49 z M143.227,381.316 C146.903,381.316 148.423,382.435 148.423,384.811 C148.423,387.412 146.836,388.626 143.047,388.625 L141.566,388.625 L142.816,389.875 L142.816,380.066 L141.566,381.316 L143.227,381.316 L143.227,380.066 L142.671,381.186 L142.671,381.186 C142.844,381.271 143.034,381.316 143.227,381.316 z M143.227,378.816 L143.227,380.066 L143.783,378.946 L143.783,378.946 C143.61,378.861 143.42,378.816 143.227,378.816 L141.566,378.816 C140.875,378.816 140.316,379.376 140.316,380.066 L140.316,389.875 C140.316,390.566 140.875,391.125 141.566,391.125 L143.047,391.125 C148.093,391.126 150.923,388.962 150.923,384.811 C150.923,380.86 148.147,378.816 143.227,378.816 z M142.366,374.432 L136.901,374.432 C136.211,374.432 135.651,374.991 135.651,375.682 L135.651,406.592 C135.651,407.282 136.211,407.842 136.901,407.842 L141.566,407.842 C142.256,407.842 142.816,407.282 142.816,406.592 L142.816,393.939 L141.566,393.939 L141.566,395.189 L142.406,395.189 L142.406,393.939 L141.381,394.655 L150.21,407.307 C150.444,407.642 150.826,407.842 151.235,407.842 L156.941,407.842 C157.962,407.842 158.552,406.683 157.952,405.857 L148.383,392.684 L147.633,394.641 C149.968,394.141 151.877,392.979 153.314,391.175 C154.749,389.373 155.468,387.216 155.468,384.751 C155.468,381.588 154.312,378.983 152.026,377.033 C149.942,375.27 146.718,374.432 142.366,374.432 z M142.366,376.932 C146.182,376.932 148.858,377.628 150.408,378.938 C152.122,380.401 152.968,382.307 152.968,384.751 C152.968,386.663 152.432,388.269 151.358,389.617 C150.286,390.963 148.885,391.816 147.109,392.197 C146.225,392.386 145.829,393.422 146.36,394.154 L155.929,407.326 L156.941,405.342 L151.235,405.342 L152.26,405.876 L143.431,393.224 C143.198,392.889 142.815,392.689 142.406,392.689 L141.566,392.689 C140.875,392.689 140.316,393.249 140.316,393.939 L140.316,406.592 L141.566,405.342 L136.901,405.342 L138.151,406.592 L138.151,375.682 L136.901,376.932 L142.366,376.932 z M178.642,374.432 L161.585,374.432 C160.895,374.432 160.335,374.991 160.335,375.682 L160.335,406.592 C160.335,407.282 160.895,407.842 161.585,407.842 L178.642,407.842 C179.332,407.842 179.892,407.282 179.892,406.592 L179.892,402.207 C179.892,401.517 179.332,400.957 178.642,400.957 L166.25,400.957 L167.5,402.207 L167.5,391.877 L166.25,393.127 L178.281,393.127 C178.972,393.127 179.531,392.568 179.531,391.877 L179.531,387.493 C179.531,386.803 178.972,386.243 178.281,386.243 L166.25,386.243 L167.5,387.493 L167.5,380.066 L166.25,381.316 L178.642,381.316 C179.332,381.316 179.892,380.756 179.892,380.066 L179.892,375.682 C179.892,374.991 179.332,374.432 178.642,374.432 z M178.642,376.932 L177.392,375.682 L177.392,380.066 L178.642,378.816 L166.25,378.816 C165.559,378.816 165,379.376 165,380.066 L165,387.493 C165,388.183 165.559,388.743 166.25,388.743 L178.281,388.743 L177.031,387.493 L177.031,391.877 L178.281,390.627 L166.25,390.627 C165.559,390.627 165,391.187 165,391.877 L165,402.207 C165,402.898 165.559,403.457 166.25,403.457 L178.642,403.457 L177.392,402.207 L177.392,406.592 L178.642,405.342 L161.585,405.342 L162.835,406.592 L162.835,375.682 L161.585,376.932 L178.642,376.932 z M225.728,374.432 L208.671,374.432 C207.981,374.432 207.421,374.991 207.421,375.682 L207.421,406.592 C207.421,407.282 207.981,407.842 208.671,407.842 L225.728,407.842 C226.418,407.842 226.978,407.282 226.978,406.592 L226.978,402.207 C226.978,401.517 226.418,400.957 225.728,400.957 L213.335,400.957 L214.585,402.207 L214.585,391.877 L213.335,393.127 L225.367,393.127 C226.058,393.127 226.617,392.568 226.617,391.877 L226.617,387.493 C226.617,386.803 226.058,386.243 225.367,386.243 L213.335,386.243 L214.585,387.493 L214.585,380.066 L213.335,381.316 L225.728,381.316 C226.418,381.316 226.978,380.756 226.978,380.066 L226.978,375.682 C226.978,374.991 226.418,374.432 225.728,374.432 z M225.728,376.932 L224.478,375.682 L224.478,380.066 L225.728,378.816 L213.335,378.816 C212.645,378.816 212.085,379.376 212.085,380.066 L212.085,387.493 C212.085,388.183 212.645,388.743 213.335,388.743 L225.367,388.743 L224.117,387.493 L224.117,391.877 L225.367,390.627 L213.335,390.627 C212.645,390.627 212.085,391.187 212.085,391.877 L212.085,402.207 C212.085,402.898 212.645,403.457 213.335,403.457 L225.728,403.457 L224.478,402.207 L224.478,406.592 L225.728,405.342 L208.671,405.342 L209.921,406.592 L209.921,375.682 L208.671,376.932 L225.728,376.932 z M242.379,384.69 L246.964,395.2 L248.109,393.45 L238.72,393.45 L239.857,395.22 L244.662,384.71 L242.379,384.69 z M244.671,383.69 C244.239,382.699 242.838,382.687 242.388,383.67 L237.583,394.181 C237.205,395.008 237.81,395.95 238.72,395.95 L248.109,395.95 C249.01,395.95 249.615,395.026 249.255,394.2 L244.671,383.69 z M242.472,373.212 L227.177,406.064 C226.791,406.893 227.396,407.842 228.31,407.842 L233.335,407.842 C233.824,407.842 234.268,407.557 234.471,407.113 L237.915,399.606 L236.778,400.335 L250.011,400.335 L248.864,399.58 L252.107,407.088 C252.305,407.545 252.756,407.842 253.255,407.842 L258.359,407.842 C259.266,407.842 259.871,406.907 259.5,406.08 L244.745,373.228 C244.307,372.251 242.924,372.242 242.472,373.212 z M244.738,374.267 L242.465,374.252 L257.219,407.104 L258.359,405.342 L253.255,405.342 L254.402,406.096 L251.159,398.589 C250.961,398.131 250.51,397.835 250.011,397.835 L236.778,397.835 C236.29,397.835 235.846,398.119 235.642,398.563 L232.199,406.071 L233.335,405.342 L228.31,405.342 L229.443,407.119 L244.738,374.267 z M268.549,381.316 C272.225,381.316 273.746,382.435 273.746,384.811 C273.746,387.412 272.159,388.626 268.369,388.625 L266.888,388.625 L268.138,389.875 L268.138,380.066 L266.888,381.316 L268.549,381.316 z M268.549,378.816 L266.888,378.816 C266.197,378.816 265.638,379.376 265.638,380.066 L265.638,389.875 C265.638,390.566 266.197,391.125 266.888,391.125 L268.369,391.125 C273.415,391.126 276.246,388.962 276.246,384.811 C276.246,380.86 273.469,378.816 268.549,378.816 z M267.689,374.432 L262.223,374.432 C261.533,374.432 260.973,374.991 260.973,375.682 L260.973,406.592 C260.973,407.282 261.533,407.842 262.223,407.842 L266.888,407.842 C267.578,407.842 268.138,407.282 268.138,406.592 L268.138,393.939 L266.888,393.939 L266.888,395.189 L267.729,395.189 L267.729,393.939 L266.703,394.655 L275.532,407.307 C275.766,407.642 276.149,407.842 276.557,407.842 L282.263,407.842 C283.284,407.842 283.874,406.683 283.274,405.857 L273.705,392.684 L272.955,394.641 C275.29,394.141 277.199,392.979 278.636,391.175 C280.071,389.373 280.79,387.216 280.79,384.751 C280.79,381.588 279.634,378.983 277.349,377.033 C275.264,375.27 272.041,374.432 267.689,374.432 z M267.689,376.932 C271.505,376.932 274.18,377.628 275.73,378.938 C277.444,380.401 278.29,382.307 278.29,384.751 C278.29,386.663 277.755,388.269 276.681,389.617 C275.608,390.963 274.207,391.816 272.432,392.197 C271.548,392.386 271.151,393.422 271.682,394.154 L281.251,407.326 L282.263,405.342 L276.557,405.342 L277.582,405.876 L268.754,393.224 C268.52,392.889 268.137,392.689 267.729,392.689 L266.888,392.689 C266.197,392.689 265.638,393.249 265.638,393.939 L265.638,406.592 L266.888,405.342 L262.223,405.342 L263.473,406.592 L263.473,375.682 L262.223,376.932 L267.689,376.932 z M320.46,374.432 L315.796,374.432 C315.105,374.432 314.546,374.991 314.546,375.682 L314.546,406.592 C314.546,407.282 315.105,407.842 315.796,407.842 L320.46,407.842 C321.15,407.842 321.71,407.282 321.71,406.592 L321.71,392.158 L320.46,393.408 L333.793,393.408 L332.543,392.158 L332.543,406.592 C332.543,407.282 333.103,407.842 333.793,407.842 L338.458,407.842 C339.148,407.842 339.708,407.282 339.708,406.592 L339.708,375.682 C339.708,374.991 339.148,374.432 338.458,374.432 L333.793,374.432 C333.103,374.432 332.543,374.991 332.543,375.682 L332.543,387.773 L333.793,386.523 L320.46,386.523 L321.71,387.773 L321.71,375.682 C321.71,374.991 321.15,374.432 320.46,374.432 z M320.46,376.932 L319.21,375.682 L319.21,387.773 C319.21,388.464 319.77,389.023 320.46,389.023 L333.793,389.023 C334.483,389.023 335.043,388.464 335.043,387.773 L335.043,375.682 L333.793,376.932 L338.458,376.932 L337.208,375.682 L337.208,406.592 L338.458,405.342 L333.793,405.342 L335.043,406.592 L335.043,392.158 C335.043,391.467 334.483,390.908 333.793,390.908 L320.46,390.908 C319.77,390.908 319.21,391.467 319.21,392.158 L319.21,406.592 L320.46,405.342 L315.796,405.342 L317.046,406.592 L317.046,375.682 L315.796,376.932 L320.46,376.932 z M193.897,373.831 C190.957,373.831 188.451,374.724 186.441,376.508 C184.401,378.302 183.358,380.586 183.358,383.269 C183.358,387.267 185.809,390.299 190.467,392.268 L193.456,393.512 C194.153,393.812 194.757,394.13 195.254,394.455 C195.717,394.758 196.082,395.073 196.353,395.395 C196.607,395.696 196.788,396.018 196.905,396.367 C197.028,396.735 197.091,397.153 197.091,397.623 C197.091,398.797 196.734,399.715 196.01,400.449 C195.288,401.181 194.402,401.538 193.276,401.538 C191.824,401.538 190.804,401.053 190.086,400.056 C189.699,399.551 189.382,398.486 189.192,396.876 C189.106,396.142 188.404,395.643 187.682,395.802 L182.957,396.843 C182.316,396.984 181.894,397.597 181.99,398.247 C182.456,401.397 183.657,403.894 185.602,405.689 C187.596,407.5 190.113,408.402 193.096,408.402 C196.247,408.402 198.931,407.344 201.077,405.243 C203.217,403.148 204.296,400.475 204.296,397.303 C204.296,394.907 203.626,392.841 202.283,391.15 C200.972,389.501 198.961,388.144 196.267,387.055 L193.189,385.796 C191.368,385.048 190.602,384.218 190.602,383.309 C190.602,382.585 190.865,382.026 191.44,381.542 C192.066,381.003 192.85,380.735 193.857,380.735 C194.687,380.735 195.316,380.891 195.765,381.179 C196.223,381.447 196.77,382.096 197.378,383.152 C197.725,383.756 198.499,383.959 199.098,383.604 L202.882,381.362 C203.471,381.013 203.67,380.255 203.327,379.661 C201.11,375.818 197.924,373.831 193.897,373.831 z M193.897,376.331 C196.996,376.331 199.376,377.815 201.162,380.911 L201.608,379.211 L197.824,381.453 L199.544,381.904 C198.738,380.505 197.936,379.552 197.069,379.046 C196.227,378.506 195.135,378.235 193.857,378.235 C192.274,378.235 190.909,378.702 189.819,379.638 C188.693,380.588 188.102,381.844 188.102,383.309 C188.102,385.416 189.579,387.016 192.241,388.109 L195.325,389.371 C197.654,390.312 199.313,391.432 200.325,392.705 C201.304,393.937 201.796,395.454 201.796,397.303 C201.796,399.816 200.978,401.841 199.328,403.456 C197.657,405.092 195.603,405.902 193.096,405.902 C190.714,405.902 188.8,405.216 187.29,403.845 C185.799,402.469 184.85,400.495 184.463,397.88 L183.495,399.284 L188.22,398.243 L186.709,397.168 C186.947,399.189 187.377,400.633 188.081,401.548 C189.262,403.189 191.045,404.038 193.276,404.038 C195.06,404.038 196.59,403.421 197.79,402.204 C198.987,400.99 199.591,399.439 199.591,397.623 C199.591,396.892 199.487,396.209 199.277,395.576 C199.059,394.924 198.721,394.325 198.266,393.785 C197.83,393.267 197.281,392.794 196.623,392.363 C195.999,391.954 195.268,391.571 194.431,391.21 L191.434,389.963 C187.637,388.357 185.858,386.157 185.858,383.269 C185.858,381.308 186.589,379.707 188.096,378.382 C189.639,377.013 191.551,376.331 193.897,376.331 z M301.001,373.831 C295.552,373.831 291.058,375.879 287.616,379.938 C284.822,383.247 283.415,387.043 283.415,391.277 C283.415,396 285.102,400.068 288.446,403.412 C291.809,406.732 295.895,408.402 300.641,408.402 C303.795,408.402 306.809,407.591 309.664,405.978 C310.056,405.757 310.299,405.341 310.299,404.89 L310.299,399.265 C310.299,398.202 309.057,397.624 308.244,398.309 C307.519,398.919 306.833,399.437 306.188,399.863 C305.564,400.275 304.969,400.598 304.404,400.833 C303.387,401.305 302.171,401.538 300.701,401.538 C297.858,401.538 295.497,400.557 293.545,398.569 C291.588,396.576 290.62,394.156 290.62,391.237 C290.62,388.274 291.591,385.81 293.553,383.777 C295.497,381.737 297.846,380.735 300.681,380.735 C303.253,380.735 305.765,381.751 308.247,383.827 C309.061,384.508 310.299,383.93 310.299,382.869 L310.299,377.343 C310.299,376.898 310.063,376.487 309.678,376.263 C306.902,374.646 304.003,373.831 301.001,373.831 z M301.001,376.331 C303.551,376.331 306.018,377.024 308.42,378.423 L307.799,377.343 L307.799,382.869 L309.851,381.91 C306.941,379.475 303.874,378.235 300.681,378.235 C297.163,378.235 294.16,379.516 291.748,382.046 C289.337,384.545 288.12,387.633 288.12,391.237 C288.12,394.804 289.34,397.856 291.761,400.321 C294.186,402.79 297.191,404.038 300.701,404.038 C302.514,404.038 304.087,403.737 305.412,403.121 C306.082,402.843 306.815,402.445 307.566,401.949 C308.295,401.468 309.058,400.891 309.854,400.221 L309.049,399.265 L307.799,399.265 L307.799,404.89 L308.434,403.802 C305.95,405.205 303.359,405.902 300.641,405.902 C296.551,405.902 293.097,404.49 290.208,401.638 C287.338,398.769 285.915,395.336 285.915,391.277 C285.915,387.637 287.111,384.412 289.524,381.553 C292.486,378.06 296.281,376.331 301.001,376.331 z" fill="rgba(0,0,0,0.75)" clip-path="url(#Clip_10)" filter="url(#Shadow_11)"/>
      </g>
    </g>
    <g>
      <text transform="matrix(1, 0, 0, 1, 255.612, 82.535)">
        <tspan x="-121.309" y="14.8" font-family="Futura-Medium" font-size="41" fill="#000000">QUANTUM</tspan>
      </text>
      <g>
        <path d="M233.981,64.323 L256.522,87.906 L256.522,66.425 L261.187,66.425 L261.187,99.217 L238.645,75.694 L238.645,97.335 L233.981,97.335 L233.981,64.323 z M345.69,64.102 L351.535,97.335 L346.751,97.335 L343.768,78.676 L334.619,98.756 L325.73,78.657 L322.407,97.335 L317.582,97.335 L324.089,64.102 L334.699,88.126 L345.69,64.102 z M293.038,66.425 L293.038,85.043 Q293.038,89.027 294.339,90.868 Q296.281,93.531 299.805,93.531 Q303.348,93.531 305.29,90.868 Q306.591,89.087 306.591,85.043 L306.591,66.425 L311.256,66.425 L311.256,86.324 Q311.256,91.209 308.213,94.372 Q304.79,97.895 299.805,97.895 Q294.82,97.895 291.417,94.372 Q288.374,91.209 288.374,86.324 L288.374,66.425 L293.038,66.425 z M179.307,66.425 L179.307,85.043 Q179.307,89.027 180.609,90.868 Q182.55,93.531 186.074,93.531 Q189.617,93.531 191.559,90.868 Q192.86,89.087 192.86,85.043 L192.86,66.425 L197.525,66.425 L197.525,86.324 Q197.525,91.209 194.482,94.372 Q191.059,97.895 186.074,97.895 Q181.089,97.895 177.686,94.372 Q174.643,91.209 174.643,86.324 L174.643,66.425 L179.307,66.425 z M152.621,65.844 Q158.507,65.844 163.172,69.808 Q168.777,74.573 168.777,82.24 Q168.777,88.246 164.353,92.91 L169.458,97.895 L163.592,97.895 L161.169,95.413 Q157.306,97.895 152.561,97.895 Q146.415,97.895 141.651,93.731 Q136.465,89.147 136.465,82.02 Q136.465,75.033 141.37,70.368 Q146.135,65.844 152.621,65.844 z M152.561,70.228 Q147.596,70.228 144.393,73.592 Q141.17,76.935 141.17,82.06 Q141.17,87.065 144.493,90.248 Q147.957,93.531 152.401,93.531 Q155.424,93.531 157.866,92.15 L150.599,85.103 L156.625,85.103 L161.109,89.567 Q164.072,86.484 164.072,81.94 Q164.072,76.955 160.769,73.592 Q157.466,70.228 152.561,70.228 z M284.21,66.425 L284.21,70.809 L277.123,70.809 L277.123,97.335 L272.458,97.335 L272.458,70.809 L265.351,70.809 L265.351,66.425 L284.21,66.425 z M215.362,64.483 L230.117,97.335 L225.012,97.335 L221.769,89.827 L208.536,89.827 L205.092,97.335 L200.068,97.335 L215.362,64.483 z M215.282,74.933 L210.478,85.443 L219.867,85.443 L215.282,74.933 z" fill="rgba(0,0,0,0.75)" clip-path="url(#Clip_12)" filter="url(#Shadow_13)"/>
        <path d="M233.077,65.186 L255.619,88.769 C256.398,89.584 257.772,89.033 257.772,87.906 L257.772,66.425 L256.522,67.675 L261.187,67.675 L259.937,66.425 L259.937,99.217 L262.09,98.352 L239.548,74.829 C238.768,74.015 237.395,74.567 237.395,75.694 L237.395,97.335 L238.645,96.085 L233.981,96.085 L235.231,97.335 L235.231,64.323 L233.077,65.186 z M234.884,63.459 C234.105,62.644 232.731,63.195 232.731,64.323 L232.731,97.335 C232.731,98.025 233.29,98.585 233.981,98.585 L238.645,98.585 C239.335,98.585 239.895,98.025 239.895,97.335 L239.895,75.694 L237.743,76.558 L260.285,100.081 C261.064,100.895 262.437,100.343 262.437,99.217 L262.437,66.425 C262.437,65.734 261.877,65.175 261.187,65.175 L256.522,65.175 C255.832,65.175 255.273,65.734 255.273,66.425 L255.273,87.906 L257.426,87.042 L234.884,63.459 z M344.458,64.319 L350.304,97.551 L351.535,96.085 L346.751,96.085 L347.985,97.137 L345.002,78.479 C344.807,77.257 343.144,77.032 342.63,78.158 L333.481,98.238 L335.762,98.251 L326.873,78.151 C326.374,77.022 324.716,77.223 324.499,78.438 L321.176,97.116 L322.407,96.085 L317.582,96.085 L318.809,97.575 L325.315,64.342 L322.945,64.607 L333.555,88.631 C333.991,89.617 335.387,89.626 335.835,88.646 L346.826,64.622 L344.458,64.319 z M346.921,63.886 C346.708,62.677 345.063,62.467 344.553,63.582 L333.562,87.606 L335.842,87.621 L325.232,63.597 C324.738,62.478 323.097,62.662 322.862,63.862 L316.355,97.095 C316.204,97.867 316.795,98.585 317.582,98.585 L322.407,98.585 C323.013,98.585 323.531,98.15 323.637,97.554 L326.961,78.875 L324.587,79.162 L333.475,99.262 C333.912,100.248 335.309,100.256 335.756,99.274 L344.905,79.195 L342.533,78.874 L345.516,97.532 C345.613,98.139 346.136,98.585 346.751,98.585 L351.535,98.585 C352.312,98.585 352.901,97.883 352.766,97.118 L346.921,63.886 z M291.788,66.425 L291.788,85.043 C291.788,87.933 292.275,90.113 293.319,91.59 C294.864,93.709 297.064,94.781 299.805,94.781 C302.558,94.781 304.765,93.71 306.3,91.605 C307.354,90.162 307.841,87.979 307.841,85.043 L307.841,66.425 L306.591,67.675 L311.256,67.675 L310.006,66.425 L310.006,86.324 C310.006,89.267 309.11,91.637 307.312,93.505 C305.271,95.607 302.792,96.645 299.805,96.645 C296.819,96.645 294.348,95.607 292.316,93.503 C290.52,91.637 289.624,89.267 289.624,86.324 L289.624,66.425 L288.374,67.675 L293.038,67.675 L291.788,66.425 z M294.288,66.425 C294.288,65.734 293.729,65.175 293.038,65.175 L288.374,65.175 C287.683,65.175 287.124,65.734 287.124,66.425 L287.124,86.324 C287.124,89.895 288.256,92.89 290.516,95.239 C293.023,97.834 296.144,99.145 299.805,99.145 C303.464,99.145 306.591,97.835 309.11,95.243 C311.374,92.89 312.506,89.895 312.506,86.324 L312.506,66.425 C312.506,65.734 311.946,65.175 311.256,65.175 L306.591,65.175 C305.901,65.175 305.341,65.734 305.341,66.425 L305.341,85.043 C305.341,87.498 304.962,89.199 304.281,90.131 C303.226,91.577 301.776,92.281 299.805,92.281 C297.848,92.281 296.404,91.578 295.349,90.132 C294.669,89.168 294.288,87.464 294.288,85.043 L294.288,66.425 z M178.057,66.425 L178.057,85.043 C178.057,87.933 178.544,90.113 179.588,91.59 C181.133,93.709 183.333,94.781 186.074,94.781 C188.827,94.781 191.034,93.71 192.569,91.605 C193.623,90.162 194.11,87.979 194.11,85.043 L194.11,66.425 L192.86,67.675 L197.525,67.675 L196.275,66.425 L196.275,86.324 C196.275,89.267 195.379,91.637 193.581,93.505 C191.54,95.607 189.061,96.645 186.074,96.645 C183.088,96.645 180.617,95.607 178.585,93.503 C176.789,91.637 175.893,89.267 175.893,86.324 L175.893,66.425 L174.643,67.675 L179.307,67.675 L178.057,66.425 z M180.557,66.425 C180.557,65.734 179.998,65.175 179.307,65.175 L174.643,65.175 C173.952,65.175 173.393,65.734 173.393,66.425 L173.393,86.324 C173.393,89.895 174.525,92.89 176.785,95.239 C179.292,97.834 182.413,99.145 186.074,99.145 C189.733,99.145 192.86,97.835 195.379,95.243 C197.643,92.89 198.775,89.895 198.775,86.324 L198.775,66.425 C198.775,65.734 198.215,65.175 197.525,65.175 L192.86,65.175 C192.17,65.175 191.61,65.734 191.61,66.425 L191.61,85.043 C191.61,87.498 191.231,89.199 190.55,90.131 C189.495,91.577 188.045,92.281 186.074,92.281 C184.117,92.281 182.673,91.578 181.618,90.132 C180.938,89.168 180.557,87.464 180.557,85.043 L180.557,66.425 z M152.621,67.094 C156.245,67.094 159.476,68.308 162.362,70.76 C165.816,73.696 167.527,77.491 167.527,82.24 C167.527,85.918 166.179,89.169 163.446,92.05 C162.976,92.546 162.991,93.327 163.479,93.805 L168.584,98.79 L169.458,96.645 L163.592,96.645 L164.487,97.022 L162.064,94.54 C161.65,94.115 160.993,94.04 160.494,94.361 C158.121,95.886 155.487,96.645 152.561,96.645 C148.769,96.645 145.424,95.369 142.473,92.79 C139.292,89.978 137.715,86.416 137.715,82.02 C137.715,77.701 139.212,74.146 142.232,71.274 C145.176,68.478 148.618,67.094 152.621,67.094 z M152.621,64.594 C147.976,64.594 143.917,66.226 140.51,69.462 C136.989,72.811 135.215,77.023 135.215,82.02 C135.215,87.126 137.095,91.372 140.823,94.668 C144.23,97.646 148.159,99.145 152.561,99.145 C155.962,99.145 159.066,98.25 161.845,96.465 L160.275,96.286 L162.697,98.768 C162.933,99.009 163.255,99.145 163.592,99.145 L169.458,99.145 C170.578,99.145 171.133,97.784 170.331,97.001 L165.226,92.016 L165.26,93.771 C168.425,90.433 170.027,86.57 170.027,82.24 C170.027,76.766 168.001,72.272 163.981,68.856 C160.648,66.023 156.845,64.594 152.621,64.594 z M152.561,68.978 C148.915,68.978 145.864,70.235 143.488,72.73 C141.113,75.193 139.92,78.328 139.92,82.06 C139.92,85.73 141.161,88.787 143.629,91.151 C146.17,93.56 149.112,94.781 152.401,94.781 C154.628,94.781 156.662,94.267 158.482,93.238 C159.208,92.827 159.336,91.833 158.737,91.252 L151.469,84.205 L150.599,86.353 L156.625,86.353 L155.743,85.989 L160.228,90.453 C160.723,90.946 161.526,90.937 162.011,90.433 C164.214,88.141 165.322,85.287 165.322,81.94 C165.322,78.294 164.096,75.195 161.661,72.716 C159.221,70.232 156.163,68.978 152.561,68.978 z M152.561,71.478 C155.499,71.478 157.913,72.467 159.877,74.468 C161.846,76.472 162.822,78.939 162.822,81.94 C162.822,84.652 161.956,86.883 160.208,88.701 L161.991,88.681 L157.507,84.217 C157.273,83.984 156.956,83.853 156.625,83.853 L150.599,83.853 C149.476,83.853 148.923,85.218 149.729,86 L156.996,93.047 L157.251,91.062 C155.814,91.874 154.205,92.281 152.401,92.281 C149.765,92.281 147.434,91.314 145.353,89.341 C143.395,87.465 142.42,85.063 142.42,82.06 C142.42,78.958 143.375,76.448 145.293,74.459 C147.193,72.464 149.587,71.478 152.561,71.478 z M282.96,66.425 L282.96,70.809 L284.21,69.559 L277.123,69.559 C276.432,69.559 275.873,70.119 275.873,70.809 L275.873,97.335 L277.123,96.085 L272.458,96.085 L273.708,97.335 L273.708,70.809 C273.708,70.119 273.148,69.559 272.458,69.559 L265.351,69.559 L266.601,70.809 L266.601,66.425 L265.351,67.675 L284.21,67.675 L282.96,66.425 z M285.46,66.425 C285.46,65.734 284.9,65.175 284.21,65.175 L265.351,65.175 C264.661,65.175 264.101,65.734 264.101,66.425 L264.101,70.809 C264.101,71.499 264.661,72.059 265.351,72.059 L272.458,72.059 L271.208,70.809 L271.208,97.335 C271.208,98.025 271.768,98.585 272.458,98.585 L277.123,98.585 C277.813,98.585 278.373,98.025 278.373,97.335 L278.373,70.809 L277.123,72.059 L284.21,72.059 C284.9,72.059 285.46,71.499 285.46,70.809 L285.46,66.425 z M214.222,64.995 L228.977,97.847 L230.117,96.085 L225.012,96.085 L226.159,96.839 L222.916,89.332 C222.718,88.874 222.267,88.577 221.769,88.577 L208.536,88.577 C208.047,88.577 207.603,88.862 207.4,89.306 L203.956,96.814 L205.092,96.085 L200.068,96.085 L201.201,97.862 L216.496,65.01 L214.222,64.995 z M216.503,63.971 C216.064,62.994 214.681,62.985 214.229,63.955 L198.934,96.807 C198.549,97.636 199.153,98.585 200.068,98.585 L205.092,98.585 C205.581,98.585 206.025,98.3 206.229,97.856 L209.672,90.349 L208.536,91.077 L221.769,91.077 L220.621,90.323 L223.864,97.83 C224.062,98.288 224.513,98.585 225.012,98.585 L230.117,98.585 C231.023,98.585 231.629,97.65 231.257,96.823 L216.503,63.971 z M214.145,74.413 L209.341,84.923 C208.962,85.751 209.567,86.693 210.478,86.693 L219.867,86.693 C220.768,86.693 221.373,85.769 221.013,84.943 L216.428,74.433 C215.996,73.442 214.595,73.43 214.145,74.413 z M216.419,75.453 L214.137,75.433 L218.721,85.943 L219.867,84.193 L210.478,84.193 L211.614,85.963 L216.419,75.453 z" fill="rgba(0,0,0,0.75)" clip-path="url(#Clip_12)" filter="url(#Shadow_13)"/>
      </g>
      <g>
        <path d="M130.465,58.102 L357.535,58.102 L357.535,105.217 L130.465,105.217 z M215.282,74.933 L219.867,85.443 L210.478,85.443 L215.282,74.933 z M215.362,64.483 L200.068,97.335 L205.092,97.335 L208.536,89.827 L221.769,89.827 L225.012,97.335 L230.117,97.335 L215.362,64.483 z M284.21,66.425 L265.351,66.425 L265.351,70.809 L272.458,70.809 L272.458,97.335 L277.123,97.335 L277.123,70.809 L284.21,70.809 L284.21,66.425 z M152.561,70.228 Q157.466,70.228 160.769,73.592 Q164.072,76.955 164.072,81.94 Q164.072,86.484 161.109,89.567 L156.625,85.103 L150.599,85.103 L157.866,92.15 Q155.424,93.531 152.401,93.531 Q147.957,93.531 144.493,90.248 Q141.17,87.065 141.17,82.06 Q141.17,76.935 144.393,73.592 Q147.596,70.228 152.561,70.228 z M152.621,65.844 Q146.135,65.844 141.37,70.368 Q136.465,75.033 136.465,82.02 Q136.465,89.147 141.651,93.731 Q146.415,97.895 152.561,97.895 Q157.306,97.895 161.169,95.413 L163.592,97.895 L169.458,97.895 L164.353,92.91 Q168.777,88.246 168.777,82.24 Q168.777,74.573 163.172,69.808 Q158.507,65.844 152.621,65.844 z M179.307,66.425 L174.643,66.425 L174.643,86.324 Q174.643,91.209 177.686,94.372 Q181.089,97.895 186.074,97.895 Q191.059,97.895 194.482,94.372 Q197.525,91.209 197.525,86.324 L197.525,66.425 L192.86,66.425 L192.86,85.043 Q192.86,89.087 191.559,90.868 Q189.617,93.531 186.074,93.531 Q182.55,93.531 180.609,90.868 Q179.307,89.027 179.307,85.043 L179.307,66.425 z M293.038,66.425 L288.374,66.425 L288.374,86.324 Q288.374,91.209 291.417,94.372 Q294.82,97.895 299.805,97.895 Q304.79,97.895 308.213,94.372 Q311.256,91.209 311.256,86.324 L311.256,66.425 L306.591,66.425 L306.591,85.043 Q306.591,89.087 305.29,90.868 Q303.348,93.531 299.805,93.531 Q296.281,93.531 294.339,90.868 Q293.038,89.027 293.038,85.043 L293.038,66.425 z M345.69,64.102 L334.699,88.126 L324.089,64.102 L317.582,97.335 L322.407,97.335 L325.73,78.657 L334.619,98.756 L343.768,78.676 L346.751,97.335 L351.535,97.335 L345.69,64.102 z M233.981,64.323 L233.981,97.335 L238.645,97.335 L238.645,75.694 L261.187,99.217 L261.187,66.425 L256.522,66.425 L256.522,87.906 L233.981,64.323 z" fill="rgba(0,0,0,0.75)" clip-path="url(#Clip_14)" filter="url(#Shadow_15)"/>
        <path d="M130.465,59.352 L357.535,59.352 L356.285,58.102 L356.285,105.217 L357.535,103.967 L130.465,103.967 L131.715,105.217 L131.715,58.102 L130.465,59.352 z M130.465,56.852 C129.775,56.852 129.215,57.412 129.215,58.102 L129.215,105.217 C129.215,105.907 129.775,106.467 130.465,106.467 L357.535,106.467 C358.226,106.467 358.785,105.907 358.785,105.217 L358.785,58.102 C358.785,57.412 358.226,56.852 357.535,56.852 L130.465,56.852 z M214.137,75.433 L218.721,85.943 L219.867,84.193 L210.478,84.193 L211.614,85.963 L216.419,75.453 L214.137,75.433 z M216.428,74.433 C215.996,73.442 214.595,73.43 214.145,74.413 L209.341,84.923 C208.962,85.751 209.567,86.693 210.478,86.693 L219.867,86.693 C220.768,86.693 221.373,85.769 221.013,84.943 L216.428,74.433 z M214.229,63.955 L198.934,96.807 C198.549,97.636 199.153,98.585 200.068,98.585 L205.092,98.585 C205.581,98.585 206.025,98.3 206.229,97.856 L209.672,90.349 L208.536,91.077 L221.769,91.077 L220.621,90.323 L223.864,97.83 C224.062,98.288 224.513,98.585 225.012,98.585 L230.117,98.585 C231.023,98.585 231.629,97.65 231.257,96.823 L216.503,63.971 C216.064,62.994 214.681,62.985 214.229,63.955 z M216.496,65.01 L214.222,64.995 L228.977,97.847 L230.117,96.085 L225.012,96.085 L226.159,96.839 L222.916,89.332 C222.718,88.874 222.267,88.577 221.769,88.577 L208.536,88.577 C208.047,88.577 207.603,88.862 207.4,89.306 L203.956,96.814 L205.092,96.085 L200.068,96.085 L201.201,97.862 L216.496,65.01 z M284.21,65.175 L265.351,65.175 C264.661,65.175 264.101,65.734 264.101,66.425 L264.101,70.809 C264.101,71.499 264.661,72.059 265.351,72.059 L272.458,72.059 L271.208,70.809 L271.208,97.335 C271.208,98.025 271.768,98.585 272.458,98.585 L277.123,98.585 C277.813,98.585 278.373,98.025 278.373,97.335 L278.373,70.809 L277.123,72.059 L284.21,72.059 C284.9,72.059 285.46,71.499 285.46,70.809 L285.46,66.425 C285.46,65.734 284.9,65.175 284.21,65.175 z M284.21,67.675 L282.96,66.425 L282.96,70.809 L284.21,69.559 L277.123,69.559 C276.432,69.559 275.873,70.119 275.873,70.809 L275.873,97.335 L277.123,96.085 L272.458,96.085 L273.708,97.335 L273.708,70.809 C273.708,70.119 273.148,69.559 272.458,69.559 L265.351,69.559 L266.601,70.809 L266.601,66.425 L265.351,67.675 L284.21,67.675 z M152.561,71.478 C155.499,71.478 157.913,72.467 159.877,74.468 C161.846,76.472 162.822,78.939 162.822,81.94 C162.822,84.652 161.956,86.883 160.208,88.701 L161.991,88.681 L157.507,84.217 C157.273,83.984 156.956,83.853 156.625,83.853 L150.599,83.853 C149.476,83.853 148.923,85.218 149.729,86 L156.996,93.047 L157.251,91.062 C155.814,91.874 154.205,92.281 152.401,92.281 C149.765,92.281 147.434,91.314 145.353,89.341 C143.395,87.465 142.42,85.063 142.42,82.06 C142.42,78.958 143.375,76.448 145.293,74.459 C147.193,72.464 149.587,71.478 152.561,71.478 z M152.561,68.978 C148.915,68.978 145.864,70.235 143.488,72.73 C141.113,75.193 139.92,78.328 139.92,82.06 C139.92,85.73 141.161,88.787 143.629,91.151 C146.17,93.56 149.112,94.781 152.401,94.781 C154.628,94.781 156.662,94.267 158.482,93.238 C159.208,92.827 159.336,91.833 158.737,91.252 L151.469,84.205 L150.599,86.353 L156.625,86.353 L155.743,85.989 L160.228,90.453 C160.723,90.946 161.526,90.937 162.011,90.433 C164.214,88.141 165.322,85.287 165.322,81.94 C165.322,78.294 164.096,75.195 161.661,72.716 C159.221,70.232 156.163,68.978 152.561,68.978 z M152.621,64.594 C147.976,64.594 143.917,66.226 140.51,69.462 C136.989,72.811 135.215,77.023 135.215,82.02 C135.215,87.126 137.095,91.372 140.823,94.668 C144.23,97.646 148.159,99.145 152.561,99.145 C155.962,99.145 159.066,98.25 161.845,96.465 L160.275,96.286 L162.697,98.768 C162.933,99.009 163.255,99.145 163.592,99.145 L169.458,99.145 C170.578,99.145 171.133,97.784 170.331,97.001 L165.226,92.016 L165.26,93.771 C168.425,90.433 170.027,86.57 170.027,82.24 C170.027,76.766 168.001,72.272 163.981,68.856 C160.648,66.023 156.845,64.594 152.621,64.594 z M152.621,67.094 C156.245,67.094 159.476,68.308 162.362,70.76 C165.816,73.696 167.527,77.491 167.527,82.24 C167.527,85.918 166.179,89.169 163.446,92.05 C162.976,92.546 162.991,93.327 163.479,93.805 L168.584,98.79 L169.458,96.645 L163.592,96.645 L164.487,97.022 L162.064,94.54 C161.65,94.115 160.993,94.04 160.494,94.361 C158.121,95.886 155.487,96.645 152.561,96.645 C148.769,96.645 145.424,95.369 142.473,92.79 C139.292,89.978 137.715,86.416 137.715,82.02 C137.715,77.701 139.212,74.146 142.232,71.274 C145.176,68.478 148.618,67.094 152.621,67.094 z M179.307,65.175 L174.643,65.175 C173.952,65.175 173.393,65.734 173.393,66.425 L173.393,86.324 C173.393,89.895 174.525,92.89 176.785,95.239 C179.292,97.834 182.413,99.145 186.074,99.145 C189.733,99.145 192.86,97.835 195.379,95.243 C197.643,92.89 198.775,89.895 198.775,86.324 L198.775,66.425 C198.775,65.734 198.215,65.175 197.525,65.175 L192.86,65.175 C192.17,65.175 191.61,65.734 191.61,66.425 L191.61,85.043 C191.61,87.498 191.231,89.199 190.55,90.131 C189.495,91.577 188.045,92.281 186.074,92.281 C184.117,92.281 182.673,91.578 181.618,90.132 C180.938,89.168 180.557,87.464 180.557,85.043 L180.557,66.425 C180.557,65.734 179.998,65.175 179.307,65.175 z M179.307,67.675 L178.057,66.425 L178.057,85.043 C178.057,87.933 178.544,90.113 179.588,91.59 C181.133,93.709 183.333,94.781 186.074,94.781 C188.827,94.781 191.034,93.71 192.569,91.605 C193.623,90.162 194.11,87.979 194.11,85.043 L194.11,66.425 L192.86,67.675 L197.525,67.675 L196.275,66.425 L196.275,86.324 C196.275,89.267 195.379,91.637 193.581,93.505 C191.54,95.607 189.061,96.645 186.074,96.645 C183.088,96.645 180.617,95.607 178.585,93.503 C176.789,91.637 175.893,89.267 175.893,86.324 L175.893,66.425 L174.643,67.675 L179.307,67.675 z M293.038,65.175 L288.374,65.175 C287.683,65.175 287.124,65.734 287.124,66.425 L287.124,86.324 C287.124,89.895 288.256,92.89 290.516,95.239 C293.023,97.834 296.144,99.145 299.805,99.145 C303.464,99.145 306.591,97.835 309.11,95.243 C311.374,92.89 312.506,89.895 312.506,86.324 L312.506,66.425 C312.506,65.734 311.946,65.175 311.256,65.175 L306.591,65.175 C305.901,65.175 305.341,65.734 305.341,66.425 L305.341,85.043 C305.341,87.498 304.962,89.199 304.281,90.131 C303.226,91.577 301.776,92.281 299.805,92.281 C297.848,92.281 296.404,91.578 295.349,90.132 C294.669,89.168 294.288,87.464 294.288,85.043 L294.288,66.425 C294.288,65.734 293.729,65.175 293.038,65.175 z M293.038,67.675 L291.788,66.425 L291.788,85.043 C291.788,87.933 292.275,90.113 293.319,91.59 C294.864,93.709 297.064,94.781 299.805,94.781 C302.558,94.781 304.765,93.71 306.3,91.605 C307.354,90.162 307.841,87.979 307.841,85.043 L307.841,66.425 L306.591,67.675 L311.256,67.675 L310.006,66.425 L310.006,86.324 C310.006,89.267 309.11,91.637 307.312,93.505 C305.271,95.607 302.792,96.645 299.805,96.645 C296.819,96.645 294.348,95.607 292.316,93.503 C290.52,91.637 289.624,89.267 289.624,86.324 L289.624,66.425 L288.374,67.675 L293.038,67.675 z M344.553,63.582 L333.562,87.606 L335.842,87.621 L325.232,63.597 C324.738,62.478 323.097,62.662 322.862,63.862 L316.355,97.095 C316.204,97.867 316.795,98.585 317.582,98.585 L322.407,98.585 C323.013,98.585 323.531,98.15 323.637,97.554 L326.961,78.875 L324.587,79.162 L333.475,99.262 C333.912,100.248 335.309,100.256 335.756,99.274 L344.905,79.195 L342.533,78.874 L345.516,97.532 C345.613,98.139 346.136,98.585 346.751,98.585 L351.535,98.585 C352.312,98.585 352.901,97.883 352.766,97.118 L346.921,63.886 C346.708,62.677 345.063,62.467 344.553,63.582 z M346.826,64.622 L344.458,64.319 L350.304,97.551 L351.535,96.085 L346.751,96.085 L347.985,97.137 L345.002,78.479 C344.807,77.257 343.144,77.032 342.63,78.158 L333.481,98.238 L335.762,98.251 L326.873,78.151 C326.374,77.022 324.716,77.223 324.499,78.438 L321.176,97.116 L322.407,96.085 L317.582,96.085 L318.809,97.575 L325.315,64.342 L322.945,64.607 L333.555,88.631 C333.991,89.617 335.387,89.626 335.835,88.646 L346.826,64.622 z M232.731,64.323 L232.731,97.335 C232.731,98.025 233.29,98.585 233.981,98.585 L238.645,98.585 C239.335,98.585 239.895,98.025 239.895,97.335 L239.895,75.694 L237.743,76.558 L260.285,100.081 C261.064,100.895 262.437,100.343 262.437,99.217 L262.437,66.425 C262.437,65.734 261.877,65.175 261.187,65.175 L256.522,65.175 C255.832,65.175 255.273,65.734 255.273,66.425 L255.273,87.906 L257.426,87.042 L234.884,63.459 C234.105,62.644 232.731,63.195 232.731,64.323 z M235.231,64.323 L233.077,65.186 L255.619,88.769 C256.398,89.584 257.772,89.033 257.772,87.906 L257.772,66.425 L256.522,67.675 L261.187,67.675 L259.937,66.425 L259.937,99.217 L262.09,98.352 L239.548,74.829 C238.768,74.015 237.395,74.567 237.395,75.694 L237.395,97.335 L238.645,96.085 L233.981,96.085 L235.231,97.335 L235.231,64.323 z" fill="rgba(0,0,0,0.75)" clip-path="url(#Clip_14)" filter="url(#Shadow_15)"/>
      </g>
    </g>
  </g>
</svg>
